<svg xmlns="http://www.w3.org/2000/svg" aria-labelledby="vote-logo" role="img" width="200" height="70" viewBox="0 0 200 70" fill="none">
  <path fill="#1F4280" d="M136.5,45L136.5,45c1.7,0,3,1.3,3,3c0,1.6-1.3,3-3,3h0c-1.6,0-3-1.3-3-3C133.6,46.3,134.9,45,136.5,45z"/>
  <path fill="#1F4280" d="M95.8,30.4h3.6v-6.3h6.1v6.3h4.4v4.2h-4.4v9c0,1.7,0.6,2.7,3,2.7c0.4,0,1,0,1.4-0.1v4.2
	c-0.9,0.2-2.3,0.4-3.7,0.4c-4.7,0-6.8-2.2-6.8-6.1V34.7h-3.6V30.4L95.8,30.4z"/>
  <path fill="#1F4280" d="M73.7,30.4l-7.5,20.1h-6.5l-7.5-20.1h6.5L63,44.3h0.1l4.4-13.8H73.7L73.7,30.4z"/>
  <path fill="#1F4280" d="M73.9,40.5c0-6,3.7-10.5,10.5-10.5C91.3,30,95,34.5,95,40.5c0,6-3.7,10.5-10.5,10.5
	C77.6,50.9,73.9,46.5,73.9,40.5L73.9,40.5z M80.2,40.5c0,3.3,1.4,5.9,4.2,5.9c2.8,0,4.3-2.5,4.3-5.9c0-3.3-1.4-5.9-4.2-5.9
	C81.7,34.6,80.2,37.1,80.2,40.5z"/>
  <path fill="#1F4280" d="M130.5,47.4c-1.8,2.1-4.3,3.5-8.5,3.5c-7.1,0-10.7-4.2-10.7-10.4c0-6.2,3.5-10.5,10.2-10.5s9.7,4.3,9.7,9.9
	c0,0.8,0,1.7-0.2,2.4h-13.5c0.3,2.6,1.6,4.2,4.7,4.2c1.7,0,3.3-0.7,4.5-2.3L130.5,47.4L130.5,47.4z M125.2,38.5
	c-0.2-2.5-1.2-4.1-3.7-4.1c-2.5,0-3.7,1.6-3.9,4.1H125.2z"/>
  <path fill="#1F4280" d="M159.3,48.7c0,6.2-3.9,10.1-9.4,10.1c-3.1,0-5.4-0.9-7.1-2l1.1-1.9c1.7,1.1,3.6,1.9,6.1,1.9c4,0,7-2.9,7-8.2
	v-2.7H157c-1.5,2.7-4,4.4-7.2,4.4c-5.4,0-8.6-4.5-8.6-10S144.5,30,150,30c3.4,0,5.7,1.8,7.1,4.2h0.1l0.1-3.8h2.1V48.7L159.3,48.7z
	 M157.1,40.2c0-4.6-2.5-8.2-6.9-8.2s-6.9,3.7-6.9,8.2c0,4.5,2.3,8.1,6.9,8.1S157.1,44.6,157.1,40.2z"/>
  <path fill="#1F4280" d="M162.2,40.4c0-5.7,3.5-10.4,9.6-10.4c6,0,9.5,4.7,9.5,10.4c0,5.7-3.5,10.4-9.6,10.4S162.2,46.2,162.2,40.4z
	 M164.5,40.5c0,4.6,2.6,8.5,7.3,8.5c4.7,0,7.3-3.8,7.3-8.5s-2.6-8.5-7.3-8.5C167.1,32,164.5,35.8,164.5,40.5z"/>
  <path fill="#1F4280" d="M200.5,30.4l-8.1,20h-2.3l-8.1-20h2.4l6.9,17.4h0.1l6.8-17.4H200.5L200.5,30.4z"/>
  <path fill="#1F4280" d="M44.6,58.8H0.5V18.4h28.1l-1.4,3H3.5v34.4h38V30.5h3V58.8z"/>
  <path fill="#DE3245" d="M44.9,12.2H34.7l-1.4,3h10.2L44.9,12.2z M27.7,27.4h10.2l1.4-3H29.1L27.7,27.4z M30.5,21.4h10.2l1.4-3H31.9
	L30.5,21.4z M24.9,33.5h10.2l1.4-3H26.3L24.9,33.5z M22.2,39.6h10.2l1.4-3H23.6L22.2,39.6z M19.3,45.6h10.2l1.4-3H20.7L19.3,45.6z
	 M16.5,51.7h10.2l1.4-3H17.9L16.5,51.7z"/>
  <path fill="#1F4280" d="M16.9,30.5H6.7l8.2,17.6L19.9,37L16.9,30.5z"/>
</svg>
