<svg xmlns="http://www.w3.org/2000/svg" viewBox="0 0 180 37.3" xml:space="preserve"><path fill-rule="evenodd" clip-rule="evenodd" fill="#0E395B" d="M14.7.3c8.1 0 14.7 6.5 14.7 14.6s-6.6 14.6-14.7 14.6S0 23 0 14.9 6.6.3 14.7.3z"/><path fill-rule="evenodd" clip-rule="evenodd" fill="#2AC2DF" d="m13.8 10.9 4-5.9-.1 5.9h-3.9zm3.7 5.6-.2 5.6-3.5-3.5 3.7-2.1z"/><path fill-rule="evenodd" clip-rule="evenodd" fill="#FFF" d="M6.3 11.6h18.3L6.1 22.2l4.4-6.6-4.2-4z"/><path fill-rule="evenodd" clip-rule="evenodd" fill="#0E395B" d="M96.9.5h5.4L113 29.2h-5.3l-2.6-7.3H93.8l-2.5 7.3H86L96.9.5zm2.6 4.3c-.1.4-.2 1-.3 1.4L95.1 18h8.7L99.7 6.3c-.1-.4-.2-1.1-.2-1.5zM119.3 22.9c1.8 0 3.2 1.4 3.2 3.2s-1.4 3.2-3.2 3.2-3.2-1.4-3.2-3.2 1.4-3.2 3.2-3.2zM37 .5h4.8v16.8c0 5.8 2.7 8.2 6.5 8.2s6.5-2.4 6.5-8.2V.5h4.8v18c0 4-1.2 7.5-4.1 9.4-1.7 1.1-3.9 1.7-7.1 1.7s-5.6-.6-7.4-1.7c-2.9-1.9-4.1-5.4-4.1-9.4l.1-18zM65.2 7.9c0-3.5 2.2-5.6 4.9-6.8C72 .3 74.1 0 75.9 0c2.8 0 4.4.2 6.5 1v4.7C80.5 4.6 79 4 76 4s-5.8 1.2-5.8 3.7c0 1.7 1 2.7 2.9 3.8 2.1.9 3.8 1.7 5.5 2.8 2.9 1.8 5 3.9 5 7.6 0 1.8-.6 3.6-2 5-1.7 1.7-4.7 2.8-8.4 2.8s-6.4-.7-8-1.7v-4.9c2.2 1.8 4.8 2.5 8.5 2.5 2.3 0 4.9-1 4.9-3.8 0-1.1-.5-2-1.4-2.8-2.5-2-6.6-2.9-9.7-5.8-1.5-1.4-2.3-3-2.3-5.3zM138.9 11.8h2.8v16.5c0 1.6-.3 3.8-1.3 5.5-1.6 2.6-4.4 3.6-7.4 3.7-2.2.1-4.4-.3-6.2-1.2v-2.8c1.7.9 3.9 1.6 6 1.6 1.6 0 3.1-.5 4.4-1.6 1.1-1.1 1.6-3.2 1.6-4.7v-2.2c-1.3 2-3.4 3.2-6 3.2-4.2 0-7.3-3.2-7.3-8.7 0-2.7.8-5.2 2.1-6.8 1.4-1.7 3.5-2.7 5.5-2.7 2.5 0 4.4.7 5.7 2.9l.1-2.7zm-.1 10v-3.7c-.5-2.9-2.6-4.5-5.1-4.5-3.4 0-5.3 3.1-5.3 6.8s1.7 6.7 5 6.7c3.1.1 5.1-2.1 5.4-5.3zM166.8 11.8h-3.1l6.6 17.4h2.8l6.9-17.4h-3l-4.9 13.4c-.1.5-.3 1.4-.3 1.7h-.1c0-.3-.1-1.1-.3-1.7l-4.6-13.4zM154.1 13.7c3.9 0 5.6 2.9 5.6 6.8s-1.7 6.7-5.6 6.7c-3.5 0-5.8-2.7-5.8-6.7 0-3.8 1.9-6.8 5.8-6.8zm-.1-2.4c6.4 0 8.6 4.1 8.6 9.1s-2.9 9.1-8.6 9.1-8.6-4-8.6-9 2.9-9.2 8.6-9.2z"/></svg>