<?xml version="1.0" encoding="UTF-8"?>
<svg id="Layer_2" data-name="Layer 2" xmlns="http://www.w3.org/2000/svg" viewBox="0 0 180 37.34">
  <defs>
    <style>
      .cls-1 {
        fill: #0e395b;
      }

      .cls-1, .cls-2, .cls-3 {
        fill-rule: evenodd;
        stroke-width: 0px;
      }

      .cls-2 {
        fill: #2ac2df;
      }

      .cls-3 {
        fill: #fff;
      }
    </style>
  </defs>
  <g id="Layer_1-2" data-name="Layer 1">
    <g>
      <path class="cls-1" d="m14.68.33c8.11,0,14.68,6.54,14.68,14.61s-6.57,14.61-14.68,14.61S0,23,0,14.94,6.57.33,14.68.33h0Z"/>
      <path class="cls-2" d="m13.77,10.9l4.05-5.87-.14,5.86-3.9.02h0Zm3.75,5.59l-.17,5.64-3.54-3.49,3.71-2.15h0Z"/>
      <polygon class="cls-3" points="6.34 11.63 24.62 11.56 6.05 22.18 10.53 15.64 6.34 11.63 6.34 11.63"/>
      <path class="cls-1" d="m96.87.47h5.41l10.68,28.69h-5.3l-2.6-7.31h-11.23l-2.51,7.31h-5.26L96.87.47h0Zm2.62,4.29h-.1c-.02.45-.12.96-.25,1.42l-4.06,11.75h8.7l-4.05-11.61c-.13-.47-.22-1.12-.25-1.57h0Z"/>
      <path class="cls-1" d="m119.31,22.92c1.79,0,3.24,1.44,3.24,3.22s-1.45,3.22-3.24,3.22-3.24-1.44-3.24-3.22,1.45-3.22,3.24-3.22h0Z"/>
      <path class="cls-1" d="m36.95.47h4.76v16.81c0,5.78,2.67,8.17,6.45,8.17s6.45-2.39,6.45-8.17V.47h4.76v17.99c0,4-1.2,7.49-4.09,9.43-1.71,1.15-3.94,1.73-7.12,1.73s-5.4-.58-7.12-1.73c-2.9-1.94-4.09-5.43-4.09-9.43V.47h0Z"/>
      <path class="cls-1" d="m65.17,7.88c0-3.46,2.24-5.64,4.93-6.79,1.9-.82,4.03-1.08,5.76-1.08,2.79,0,4.45.2,6.52.98v4.71c-1.9-1.07-3.36-1.69-6.37-1.69s-5.76,1.21-5.76,3.7c0,1.73.99,2.68,2.88,3.77,2.05.95,3.78,1.72,5.53,2.82,2.92,1.83,5,3.94,5,7.61,0,1.82-.63,3.61-2.01,4.96-1.72,1.68-4.68,2.76-8.38,2.76s-6.42-.67-8.07-1.63v-4.92c2.16,1.79,4.81,2.5,8.46,2.5,2.32,0,4.91-.97,4.91-3.78,0-1.09-.49-2.05-1.39-2.76-2.52-1.98-6.63-2.85-9.65-5.75-1.52-1.45-2.37-3.09-2.37-5.4h0Z"/>
      <path class="cls-1" d="m138.85,11.78h2.8v16.46c0,1.62-.33,3.81-1.34,5.45-1.55,2.58-4.35,3.57-7.35,3.65-2.19.06-4.4-.32-6.18-1.25v-2.82c1.71.89,3.92,1.63,6.03,1.61,1.6-.02,3.14-.47,4.37-1.64,1.15-1.09,1.64-3.24,1.64-4.69v-2.23c-1.33,2.03-3.36,3.23-6.03,3.23-4.21,0-7.3-3.2-7.3-8.7,0-2.73.77-5.16,2.13-6.82,1.41-1.73,3.55-2.72,5.52-2.72,2.51,0,4.39.74,5.69,2.93v-2.45h0Zm-.01,10.07v-3.68c-.52-2.94-2.55-4.46-5.06-4.46-3.44,0-5.33,3.07-5.33,6.78s1.73,6.67,5.03,6.67c3.03,0,5.02-2.14,5.36-5.32h0Z"/>
      <path class="cls-1" d="m166.77,11.78h-3.08l6.61,17.37h2.76l6.95-17.37h-3s-4.87,13.36-4.87,13.36c-.14.52-.28,1.4-.29,1.68h-.05c-.01-.27-.15-1.15-.29-1.68l-4.74-13.36h0Z"/>
      <path class="cls-1" d="m154.12,13.71c3.93,0,5.55,2.94,5.55,6.77,0,3.91-1.74,6.69-5.64,6.69-3.52,0-5.76-2.73-5.76-6.69,0-3.74,1.91-6.77,5.86-6.77h0Zm-.1-2.39c6.35,0,8.55,4.12,8.55,9.12s-2.93,9.07-8.64,9.07-8.55-4.03-8.55-9.02,2.94-9.17,8.64-9.17h0Z"/>
    </g>
  </g>
</svg>