<?xml version="1.0" encoding="UTF-8"?>
<svg id="Layer_2" data-name="Layer 2" xmlns="http://www.w3.org/2000/svg" viewBox="0 0 220.53 220.53">
  <defs>
    <style>
      .cls-1 {
        fill: #0f385a;
      }

      .cls-1, .cls-2, .cls-3 {
        stroke-width: 0px;
      }

      .cls-2 {
        fill: #fff;
      }

      .cls-3 {
        fill: #24c1e0;
      }
    </style>
  </defs>
  <g id="Layer_1-2" data-name="Layer 1">
    <g>
      <circle class="cls-1" cx="110.27" cy="110.27" r="110.27" transform="translate(-25.47 187.04) rotate(-74.49)"/>
      <g>
        <path class="cls-3" d="M95.2,162.23c-2.39,13.22-13.14,19.04-24.06,19.04-8.44,0-12.82-2.63-16.09-5.74l4.14-6.05c3.42,3.51,7.97,5.02,13.06,5.02,7.73,0,13.86-4.46,15.37-12.99l.95-5.34c-4.78,5.42-10.35,7.25-15.69,7.25-11.95,0-18.08-9.4-16.01-20.79,2.07-11.39,11.47-20.79,23.42-20.79,5.34,0,10.2,1.83,13.14,7.25l1.12-6.37h7.73l-7.09,39.51ZM79.98,128.69c-8.29,0-14.1,6.37-15.46,13.94-1.35,7.57,2.23,13.94,10.52,13.94s14.58-5.89,16.17-13.94c1.27-8.05-3.19-13.94-11.23-13.94Z"/>
        <path class="cls-3" d="M128.58,121.84c11.55,0,19.28,9.4,17.29,20.79-2.07,11.47-13.14,20.79-24.7,20.79s-19.2-9.24-17.13-20.79c1.99-11.47,13.07-20.79,24.53-20.79ZM122.36,156.58c7.33,0,14.34-6.21,15.69-13.86,1.35-7.73-3.43-14.02-10.75-14.02s-14.26,6.3-15.69,14.02c-1.27,7.65,3.5,13.86,10.75,13.86Z"/>
        <path class="cls-3" d="M165.94,162.55h-8.76l-8.36-39.83h8.12l6.05,31.31,17.21-31.31h8.13l-22.39,39.83Z"/>
      </g>
      <g>
        <path class="cls-2" d="M102.27,112.7h-12.26l.91-5.76c-4.36,4.94-9.14,6.67-14.24,6.67-11.85,0-13.42-9.46-11.52-20.17l4.12-22.96h12.26l-4.03,22.72c-1.07,5.84.33,10.29,6.01,10.29s8.81-4.53,9.88-10.37l4.03-22.63h12.35l-7.49,42.22Z"/>
        <path class="cls-2" d="M117.74,97.81c.33,4.86,4.44,6.34,7.82,6.34,2.72,0,5.6-1.07,6.09-3.21.33-1.4-.5-2.3-2.63-3.21l-6.83-2.96c-9.3-4.03-8.73-10.37-8.4-12.26,1.48-8.48,9.79-12.92,18.85-12.92,4.86,0,11.03,1.32,13.66,8.89l-10.21,4.36c-.58-3.38-3.46-4.03-5.35-4.03-2.3,0-4.77,1.32-5.27,3.46-.41,1.81,1.32,2.8,3.37,3.62l5.84,2.22c9.3,3.54,9.14,9.63,8.64,12.43-1.48,8.64-10.29,13.09-19.59,13.09-6.26,0-14.49-1.98-15.8-10.78l9.79-5.02Z"/>
        <path class="cls-2" d="M197,70.48l-7.49,42.22h-12.26l.99-6.17c-3.79,4.36-8.31,7.08-14.49,7.08-12.84,0-18.77-9.88-16.63-22.22,2.06-11.85,11.03-21.81,24.2-21.81,5.68,0,10.12,2.8,12.34,6.67l1.07-5.76h12.26ZM168.11,103.65c6.01,0,11.69-3.87,13-11.52,1.4-7.82-2.47-12.59-9.14-12.59s-11.44,5.43-12.59,11.93c-1.23,6.75,1.98,12.18,8.72,12.18Z"/>
      </g>
      <g>
        <polygon class="cls-3" points="56.76 73.47 57.13 62.27 49.76 66.55 56.76 73.47"/>
        <polygon class="cls-3" points="57.71 39.24 49.73 50.85 57.4 50.82 57.71 39.24"/>
        <polygon class="cls-2" points="71.28 52.26 34.79 52.4 43.16 60.46 34.21 73.56 71.28 52.26"/>
      </g>
    </g>
  </g>
</svg>