<svg version="1.1" xmlns="http://www.w3.org/2000/svg" x="0px" y="0px" viewBox="0 0 220.5 220.5" enable-background="new 0 0 220.5 220.5" xml:space="preserve">
  <circle fill="#0F385A" cx="110.3" cy="110.3" r="110.3"/>
  <path fill="#24C1E0" d="M95.2,162.2c-2.4,13.2-13.1,19-24.1,19c-8.4,0-12.8-2.6-16.1-5.7l4.1-6.1c3.4,3.5,8,5,13.1,5
	c7.7,0,13.9-4.5,15.4-13l0.9-5.3c-4.8,5.4-10.3,7.2-15.7,7.2c-12,0-18.1-9.4-16-20.8c2.1-11.4,11.5-20.8,23.4-20.8
	c5.3,0,10.2,1.8,13.1,7.2l1.1-6.4h7.7L95.2,162.2L95.2,162.2z M80,128.7c-8.3,0-14.1,6.4-15.5,13.9c-1.3,7.6,2.2,13.9,10.5,13.9
	s14.6-5.9,16.2-13.9C92.5,134.6,88,128.7,80,128.7z"/>
  <path fill="#24C1E0" d="M128.6,121.8c11.6,0,19.3,9.4,17.3,20.8c-2.1,11.5-13.1,20.8-24.7,20.8s-19.2-9.2-17.1-20.8
	C106,131.2,117.1,121.8,128.6,121.8L128.6,121.8z M122.4,156.6c7.3,0,14.3-6.2,15.7-13.9c1.4-7.7-3.4-14-10.8-14s-14.3,6.3-15.7,14
	C110.3,150.4,115.1,156.6,122.4,156.6z"/>
  <path fill="#24C1E0" d="M165.9,162.6h-8.8l-8.4-39.8h8.1L163,154l17.2-31.3h8.1L165.9,162.6L165.9,162.6z"/>
  <path fill="#FFFFFF" d="M102.3,112.7H90l0.9-5.8c-4.4,4.9-9.1,6.7-14.2,6.7c-11.8,0-13.4-9.5-11.5-20.2l4.1-23h12.3l-4,22.7
	c-1.1,5.8,0.3,10.3,6,10.3s8.8-4.5,9.9-10.4l4-22.6h12.3L102.3,112.7L102.3,112.7z"/>
  <path fill="#FFFFFF" d="M117.7,97.8c0.3,4.9,4.4,6.3,7.8,6.3c2.7,0,5.6-1.1,6.1-3.2c0.3-1.4-0.5-2.3-2.6-3.2l-6.8-3
	c-9.3-4-8.7-10.4-8.4-12.3c1.5-8.5,9.8-12.9,18.8-12.9c4.9,0,11,1.3,13.7,8.9l-10.2,4.4c-0.6-3.4-3.5-4-5.4-4
	c-2.3,0-4.8,1.3-5.3,3.5c-0.4,1.8,1.3,2.8,3.4,3.6l5.8,2.2c9.3,3.5,9.1,9.6,8.6,12.4c-1.5,8.6-10.3,13.1-19.6,13.1
	c-6.3,0-14.5-2-15.8-10.8L117.7,97.8L117.7,97.8z"/>
  <path fill="#FFFFFF" d="M197,70.5l-7.5,42.2h-12.3l1-6.2c-3.8,4.4-8.3,7.1-14.5,7.1c-12.8,0-18.8-9.9-16.6-22.2
	c2.1-11.8,11-21.8,24.2-21.8c5.7,0,10.1,2.8,12.3,6.7l1.1-5.8L197,70.5L197,70.5z M168.1,103.7c6,0,11.7-3.9,13-11.5
	c1.4-7.8-2.5-12.6-9.1-12.6s-11.4,5.4-12.6,11.9C158.2,98.2,161.4,103.7,168.1,103.7L168.1,103.7z"/>
  <polygon fill="#24C1E0" points="56.8,73.5 57.1,62.3 49.8,66.6 "/>
  <polygon fill="#24C1E0" points="57.7,39.2 49.7,50.8 57.4,50.8 "/>
  <polygon fill="#FFFFFF" points="71.3,52.3 34.8,52.4 43.2,60.5 34.2,73.6 "/>
</svg>
