<svg width="34" height="32" viewBox="0 0 34 32" fill="none" xmlns="http://www.w3.org/2000/svg">
<g id="Group 37904">
<g id="Ellipse 41">
<path d="M34 16C34 24.8366 26.4717 32 17.1852 32C7.89861 32 0.370361 24.8366 0.370361 16C0.370361 7.16344 7.89861 0 17.1852 0C26.4717 0 34 7.16344 34 16Z" fill="#1B1B1B"/>
<path d="M34 16C34 24.8366 26.4717 32 17.1852 32C7.89861 32 0.370361 24.8366 0.370361 16C0.370361 7.16344 7.89861 0 17.1852 0C26.4717 0 34 7.16344 34 16Z" stroke="#E2EDF2"/>
</g>
<path id="Vector" d="M21.5551 9.5H23.8727L18.8094 15.0067L24.766 22.5H20.102L16.449 17.9553L12.2691 22.5H9.95007L15.3658 16.61L9.65161 9.5H14.434L17.736 13.654L21.5551 9.5ZM20.7417 21.18H22.0259L13.7362 10.7507H12.3581L20.7417 21.18Z" fill="#E2EDF2"/>
<g id="Ellipse 41_2">
<path d="M34 16C34 24.8366 26.4717 32 17.1852 32C7.89861 32 0.370361 24.8366 0.370361 16C0.370361 7.16344 7.89861 0 17.1852 0C26.4717 0 34 7.16344 34 16Z" fill="#1B1B1B"/>
<path d="M34 16C34 24.8366 26.4717 32 17.1852 32C7.89861 32 0.370361 24.8366 0.370361 16C0.370361 7.16344 7.89861 0 17.1852 0C26.4717 0 34 7.16344 34 16Z" stroke="#E2EDF2"/>
</g>
<path id="Vector_2" d="M21.5551 9.5H23.8727L18.8094 15.0067L24.766 22.5H20.102L16.449 17.9553L12.2691 22.5H9.95007L15.3658 16.61L9.65161 9.5H14.434L17.736 13.654L21.5551 9.5ZM20.7417 21.18H22.0259L13.7362 10.7507H12.3581L20.7417 21.18Z" fill="white"/>
</g>
</svg>
