<svg xmlns="http://www.w3.org/2000/svg" width="64" height="64" viewBox="0 0 64 64" fill="#3E79BB">
  <rect x="0.5" y="0.5" width="63" height="63" rx="26.5" stroke="white" stroke-linecap="square" stroke-dasharray="1 1"/>
  <path d="M51.9824 22.2796C52.453 22.1411 52.6883 21.6334 52.5471 21.1719C52.4059 20.7103 51.8883 20.4796 51.4648 20.618C50.9942 20.7565 50.7589 21.2642 50.9001 21.7257C51.0412 22.1873 51.5118 22.418 51.9824 22.2796Z" fill="white"/>
  <path d="M51.504 23.5702C51.6452 23.1087 51.3628 22.6471 50.8923 22.5087C50.4217 22.3702 49.9511 22.601 49.8099 23.0625C49.6687 23.524 49.9511 23.9856 50.4217 24.124C50.8452 24.2625 51.3158 24.0317 51.504 23.5702Z" fill="white"/>
  <path d="M50.5527 26.5296C51.0233 26.3911 51.2586 25.8834 51.1174 25.4219C50.9763 24.9603 50.4586 24.7296 50.0351 24.868C49.5645 25.0065 49.3292 25.5142 49.4704 25.9757C49.6116 26.4373 50.0821 26.668 50.5527 26.5296Z" fill="white"/>
  <path d="M49.3818 24.0335C49.3818 23.572 48.9583 23.1566 48.4877 23.2027C48.0171 23.2027 47.6406 23.572 47.6406 24.0335C47.6406 24.495 48.0642 24.9104 48.5347 24.8643C48.9583 24.8643 49.3347 24.495 49.3818 24.0335Z" fill="white"/>
  <path d="M47.3163 26.7129C47.7869 26.8514 48.2575 26.5745 48.3987 26.1129C48.5399 25.6514 48.3046 25.1899 47.834 25.0514C47.3634 24.9129 46.8928 25.1899 46.7516 25.6514C46.6105 26.0668 46.8457 26.5745 47.3163 26.7129Z" fill="white"/>
  <path d="M49.1593 28.4626C49.4416 28.0472 49.3475 27.5395 48.924 27.2626C48.5475 26.9857 47.9828 27.078 47.7005 27.4472C47.4181 27.8626 47.5122 28.3703 47.9358 28.6472C48.3122 28.9241 48.8769 28.8318 49.1593 28.4626Z" fill="white"/>
  <path d="M48.6759 30.6796C48.8171 30.218 48.5347 29.7565 48.0641 29.618C47.5935 29.4796 47.123 29.7103 46.9818 30.1719C46.8406 30.6334 47.123 31.095 47.5935 31.2334C48.0641 31.3257 48.5347 31.095 48.6759 30.6796Z" fill="white"/>
  <path d="M46.84 29.5233C46.9811 29.0618 46.6988 28.6002 46.2282 28.4618C45.7576 28.3233 45.287 28.5541 45.1458 29.0156C45.0047 29.4772 45.287 29.9387 45.7576 30.0772C46.2282 30.2156 46.6988 29.9849 46.84 29.5233Z" fill="white"/>
  <path d="M45.3905 27.7246C45.8611 27.8631 46.3317 27.5862 46.4728 27.1246C46.614 26.6631 46.3787 26.2016 45.9081 26.0631C45.4375 25.9246 44.967 26.2016 44.8258 26.6631C44.6846 27.1246 44.967 27.5862 45.3905 27.7246Z" fill="white"/>
  <path d="M44.5421 29.2516C44.8245 28.8363 44.7303 28.3286 44.3068 28.0516C43.9303 27.7747 43.3656 27.867 43.0833 28.2363C42.8009 28.6516 42.895 29.1593 43.3186 29.4363C43.7421 29.7132 44.2597 29.6209 44.5421 29.2516Z" fill="white"/>
  <path d="M42.1455 29.5261C42.522 29.2492 42.6161 28.6953 42.3337 28.3261C42.0514 27.9569 41.5338 27.8646 41.1102 28.1415C40.7338 28.4184 40.6396 28.9723 40.922 29.3415C41.2514 29.7107 41.769 29.803 42.1455 29.5261Z" fill="white"/>
  <path d="M40.4902 31.8343C40.9608 31.6958 41.1961 31.1881 41.0549 30.7266C40.9138 30.265 40.3961 30.0343 39.9726 30.1727C39.502 30.3112 39.2667 30.8189 39.4079 31.2804C39.5491 31.7419 40.0196 31.9727 40.4902 31.8343Z" fill="white"/>
  <path d="M43.0371 32.0647C43.5077 31.9263 43.743 31.4186 43.6018 30.957C43.4606 30.4955 42.943 30.2647 42.5195 30.4032C42.0489 30.5416 41.8136 31.0493 41.9548 31.5109C42.0959 31.9263 42.5665 32.2032 43.0371 32.0647Z" fill="white"/>
  <path d="M45.1553 32.528C45.6259 32.528 46.0494 32.1126 46.0024 31.6511C46.0024 31.1895 45.6259 30.8203 45.1553 30.8203C44.6847 30.8203 44.2612 31.2357 44.3083 31.6972C44.3083 32.1126 44.6847 32.4819 45.1553 32.528Z" fill="white"/>
  <path d="M48.4052 32.7093C48.4052 32.2477 47.9817 31.8324 47.5111 31.8785C47.0405 31.8785 46.6641 32.2477 46.6641 32.7093C46.6641 33.1708 47.0876 33.5862 47.5582 33.5401C48.0288 33.5401 48.4052 33.1708 48.4052 32.7093Z" fill="white"/>
  <path d="M46.4275 33.8652C46.1451 33.4959 45.5804 33.4036 45.204 33.6805C44.8275 33.9575 44.7334 34.4652 45.0157 34.8805C45.2981 35.2498 45.8628 35.3421 46.2393 35.0652C46.6157 34.7421 46.7099 34.2344 46.4275 33.8652Z" fill="white"/>
  <path d="M43.6465 34.6038C44.1171 34.4653 44.3524 33.9576 44.2112 33.4961C44.07 33.0346 43.5524 32.8038 43.1288 32.9423C42.6582 33.0807 42.423 33.5884 42.5641 34.0499C42.7053 34.5115 43.223 34.7422 43.6465 34.6038Z" fill="white"/>
  <path d="M40.96 34.2311C41.4306 34.2311 41.8541 33.8157 41.8071 33.3542C41.8071 32.8927 41.4306 32.5234 40.96 32.5234C40.4894 32.5234 40.0659 32.9388 40.113 33.4004C40.113 33.8619 40.4894 34.2311 40.96 34.2311Z" fill="white"/>
  <path d="M38.7012 33.8655C39.1718 33.727 39.407 33.2194 39.2659 32.7578C39.1247 32.2963 38.607 32.0655 38.1835 32.204C37.7129 32.3424 37.4776 32.8501 37.6188 33.3117C37.807 33.727 38.2776 34.004 38.7012 33.8655Z" fill="white"/>
  <path d="M39.0772 36.3561C39.5478 36.3561 39.9713 35.9407 39.9243 35.4792C39.9243 35.0177 39.5478 34.6484 39.0772 34.6484C38.6066 34.6484 38.1831 35.0638 38.2301 35.5254C38.2301 35.9407 38.6066 36.31 39.0772 36.3561Z" fill="white"/>
  <path d="M40.8673 36.3532C41.1497 36.7224 41.7144 36.8147 42.0908 36.5378C42.4673 36.2609 42.5614 35.7532 42.2791 35.3378C41.9967 34.9686 41.432 34.8763 41.0555 35.1532C40.6791 35.4301 40.5849 35.9378 40.8673 36.3532Z" fill="white"/>
  <path d="M44.8181 35.9394C44.5358 35.5702 43.9711 35.4778 43.5946 35.7548C43.2181 36.0317 43.124 36.5394 43.4064 36.9548C43.6887 37.324 44.2534 37.4163 44.6299 37.1394C45.0064 36.8163 45.1005 36.3086 44.8181 35.9394Z" fill="white"/>
  <path d="M45.3009 39.5858C45.4421 39.1243 45.1597 38.6627 44.6891 38.5243C44.2185 38.3858 43.748 38.6166 43.6068 39.0781C43.4656 39.5397 43.748 40.0012 44.2185 40.1397C44.6891 40.232 45.1597 40.0012 45.3009 39.5858Z" fill="white"/>
  <path d="M46.749 41.7093C46.749 41.2477 46.3255 40.8324 45.8549 40.8785C45.3843 40.8785 45.0078 41.2477 45.0078 41.7093C45.0078 42.1708 45.4313 42.5862 45.9019 42.5401C46.3725 42.5401 46.749 42.1708 46.749 41.7093Z" fill="white"/>
  <path d="M42.3809 39.0335C42.8514 38.895 43.0867 38.3873 42.9456 37.9258C42.8044 37.4642 42.2867 37.2335 41.8632 37.3719C41.3926 37.5104 41.1573 38.0181 41.2985 38.4796C41.4397 38.895 41.9103 39.1719 42.3809 39.0335Z" fill="white"/>
  <path d="M40.3025 37.4649C40.0201 37.0957 39.4554 37.0033 39.079 37.3264C38.7025 37.6033 38.6084 38.111 38.8907 38.5264C39.1731 38.8957 39.7378 38.988 40.1143 38.6649C40.4907 38.388 40.5849 37.8341 40.3025 37.4649Z" fill="white"/>
  <path d="M37.5684 40.2796C38.0389 40.1411 38.2742 39.6334 38.1331 39.1719C37.9919 38.7103 37.4742 38.4796 37.0507 38.618C36.5801 38.7565 36.3448 39.2642 36.486 39.7257C36.6272 40.1873 37.1448 40.418 37.5684 40.2796Z" fill="white"/>
  <path d="M35.7384 39.4491C35.8796 38.9876 35.5972 38.526 35.1266 38.3876C34.656 38.2491 34.1855 38.4799 34.0443 38.9414C33.9031 39.4029 34.1855 39.8645 34.656 40.0029C35.1266 40.1414 35.5972 39.9106 35.7384 39.4491Z" fill="white"/>
  <path d="M33.3877 38.8034C33.7642 38.5265 33.8583 37.9727 33.5759 37.6034C33.2936 37.2342 32.7759 37.1419 32.3524 37.4188C31.9759 37.6958 31.8818 38.2496 32.1642 38.6188C32.4465 38.9881 33.0112 39.0804 33.3877 38.8034Z" fill="white"/>
  <path d="M31.8897 36.7702C32.3603 36.7702 32.7838 36.3548 32.7368 35.8933C32.7368 35.4317 32.3603 35.0625 31.8897 35.0625C31.4191 35.0625 30.9956 35.4779 31.0426 35.9394C31.0426 36.401 31.4191 36.7702 31.8897 36.7702Z" fill="white"/>
  <path d="M34.2324 35.0179C34.703 34.8794 34.9383 34.3717 34.7971 33.9102C34.6559 33.4486 34.1383 33.2179 33.7148 33.3563C33.2442 33.4948 33.0089 34.0025 33.1501 34.464C33.2912 34.9255 33.7618 35.1563 34.2324 35.0179Z" fill="white"/>
  <path d="M34.1415 37.2336C34.565 37.5105 35.0826 37.4182 35.365 37.0028C35.6474 36.6336 35.5532 36.0797 35.1768 35.8028C34.7532 35.5259 34.2356 35.6182 33.9532 36.0336C33.6709 36.449 33.765 36.9567 34.1415 37.2336Z" fill="white"/>
  <path d="M36.3595 37.6944C36.6418 38.0636 37.2065 38.1559 37.583 37.8329C37.9595 37.5559 38.0536 37.0482 37.7713 36.6329C37.4889 36.2636 36.9242 36.1713 36.5477 36.4944C36.1712 36.7713 36.0771 37.3252 36.3595 37.6944Z" fill="white"/>
  <path d="M36.0274 35.4797C36.4509 35.7566 36.9685 35.6643 37.2509 35.2489C37.5333 34.8797 37.4391 34.3258 37.0627 34.0489C36.6391 33.772 36.1215 33.8643 35.8391 34.2797C35.6038 34.6951 35.6509 35.2028 36.0274 35.4797Z" fill="white"/>
  <path d="M35.8897 33.3132C36.3603 33.3132 36.7838 32.8978 36.7368 32.4362C36.7368 31.9747 36.3603 31.6055 35.8897 31.6055C35.4191 31.6055 34.9956 32.0209 35.0426 32.4824C35.0426 32.8978 35.4191 33.267 35.8897 33.3132Z" fill="white"/>
  <path d="M37.998 31.4671C38.4686 31.3286 38.7039 30.8209 38.5627 30.3594C38.4216 29.8978 37.9039 29.6671 37.4804 29.8055C37.0098 29.944 36.7745 30.4517 36.9157 30.9132C37.0569 31.3748 37.5275 31.6055 37.998 31.4671Z" fill="white"/>
  <path d="M39.839 29.2956C40.2155 29.0187 40.3096 28.4649 39.9802 28.0956C39.6978 27.7264 39.1802 27.6341 38.7566 27.911C38.3802 28.1879 38.286 28.7418 38.6155 29.111C38.9449 29.4341 39.4625 29.5264 39.839 29.2956Z" fill="white"/>
  <path d="M41.3337 25.836C41.0514 25.4667 40.4867 25.3744 40.1102 25.6975C39.7338 25.9744 39.6396 26.4821 39.922 26.8975C40.2043 27.2667 40.769 27.3591 41.1455 27.036C41.522 26.7591 41.6161 26.2052 41.3337 25.836Z" fill="white"/>
  <path d="M40.7324 24.8655C41.203 24.727 41.4383 24.2194 41.2971 23.7578C41.1559 23.2963 40.6383 23.0655 40.2148 23.204C39.7442 23.3424 39.5089 23.8501 39.6501 24.3117C39.7912 24.7732 40.2618 25.004 40.7324 24.8655Z" fill="white"/>
  <path d="M38.749 23.6194C38.749 23.1579 38.3255 22.7425 37.8549 22.7887C37.3843 22.7887 37.0078 23.1579 37.0078 23.6194C37.0078 24.081 37.4313 24.4964 37.9019 24.4502C38.3725 24.4502 38.749 24.081 38.749 23.6194Z" fill="white"/>
  <path d="M36.1228 22.0956C35.8405 21.7264 35.2758 21.6341 34.8993 21.911C34.5228 22.1879 34.4287 22.6956 34.711 23.111C34.9934 23.4802 35.5581 23.5726 35.9346 23.2956C36.311 23.0187 36.3581 22.4649 36.1228 22.0956Z" fill="white"/>
  <path d="M33.2413 22.7858C33.7119 22.7858 34.1354 22.3704 34.0883 21.9089C34.0883 21.4474 33.7119 21.0781 33.2413 21.0781C32.7707 21.0781 32.3472 21.4935 32.3942 21.955C32.3942 22.4166 32.7707 22.7858 33.2413 22.7858Z" fill="white"/>
  <path d="M29.9974 21.4961C29.8562 21.9576 30.1386 22.4192 30.6092 22.5576C31.0798 22.6961 31.5503 22.4653 31.6915 22.0038C31.8327 21.5423 31.5503 21.0807 31.0798 20.9423C30.6562 20.8038 30.1856 21.0346 29.9974 21.4961Z" fill="white"/>
  <path d="M27.6407 22.0485C27.9231 22.4177 28.4878 22.5101 28.8643 22.2331C29.2407 21.9562 29.3349 21.4485 29.0525 21.0331C28.7701 20.6639 28.2054 20.5716 27.829 20.8485C27.4525 21.1254 27.3584 21.6793 27.6407 22.0485Z" fill="white"/>
  <path d="M28.9101 22.9266C28.4395 23.0651 28.2042 23.5728 28.3454 24.0343C28.4866 24.4959 29.0042 24.7266 29.4277 24.5882C29.8983 24.4497 30.1336 23.942 29.9924 23.4805C29.8042 23.0189 29.3336 22.7882 28.9101 22.9266Z" fill="white"/>
  <path d="M31.546 25.0007C32.0165 25.0007 32.4401 24.5853 32.393 24.1237C32.393 23.6622 32.0165 23.293 31.546 23.293C31.0754 23.293 30.6518 23.7084 30.6989 24.1699C30.6989 24.6314 31.0754 25.0007 31.546 25.0007Z" fill="white"/>
  <path d="M29.7148 25.2352C29.2442 25.3737 29.0089 25.8814 29.1501 26.3429C29.2912 26.8045 29.8089 27.0352 30.2324 26.8968C30.703 26.7583 30.9383 26.2506 30.7971 25.7891C30.6559 25.3737 30.1854 25.0968 29.7148 25.2352Z" fill="white"/>
  <path d="M30.5225 27.5391C30.0519 27.5391 29.6284 27.9544 29.6755 28.416C29.6755 28.8775 30.0519 29.2468 30.5225 29.2468C30.9931 29.2468 31.4166 28.8314 31.3696 28.3698C31.3696 27.9544 30.9931 27.5852 30.5225 27.5391Z" fill="white"/>
  <path d="M31.7478 30.3105C31.4655 29.9412 30.9008 29.8489 30.5243 30.1259C30.1478 30.4028 30.0537 30.9105 30.336 31.3259C30.6184 31.6951 31.1831 31.7874 31.5596 31.5105C31.936 31.2336 32.0302 30.6797 31.7478 30.3105Z" fill="white"/>
  <path d="M33.6619 28.6055C33.3795 28.2363 32.8148 28.144 32.4383 28.467C32.0619 28.744 31.9678 29.2517 32.2501 29.667C32.5325 30.0363 33.0972 30.1286 33.4736 29.8055C33.8501 29.5286 33.8972 28.9747 33.6619 28.6055Z" fill="white"/>
  <path d="M35.5056 26.7128C35.2233 26.3436 34.6586 26.2513 34.2821 26.5282C33.9056 26.8051 33.8115 27.3128 34.0939 27.7282C34.3762 28.0974 34.9409 28.1897 35.3174 27.9128C35.6939 27.6359 35.788 27.1282 35.5056 26.7128Z" fill="white"/>
  <path d="M33.0994 26.1581C32.817 25.7889 32.2523 25.6966 31.8758 25.9735C31.4994 26.2504 31.4053 26.8043 31.6876 27.1735C31.97 27.5427 32.5347 27.6351 32.9111 27.3581C33.2876 27.0812 33.3817 26.5274 33.0994 26.1581Z" fill="white"/>
  <path d="M34.4666 24.08C34.1842 23.7108 33.6195 23.6185 33.243 23.8954C32.8666 24.1723 32.7724 24.68 33.0548 25.0954C33.3372 25.4646 33.9019 25.5569 34.2783 25.28C34.6548 25.0031 34.7489 24.4954 34.4666 24.08Z" fill="white"/>
  <path d="M36.9119 24.7284C36.6295 24.3592 36.0648 24.2669 35.6883 24.5438C35.3119 24.8208 35.2178 25.3284 35.5001 25.7438C35.7825 26.1131 36.3472 26.2054 36.7236 25.9284C37.1001 25.6515 37.1472 25.1438 36.9119 24.7284Z" fill="white"/>
  <path d="M39.1212 26.3397C39.2624 25.8782 38.98 25.4166 38.5094 25.2782C38.0389 25.1397 37.5683 25.3705 37.4271 25.832C37.2859 26.2936 37.5683 26.7551 38.0389 26.8936C38.5094 27.032 38.98 26.8013 39.1212 26.3397Z" fill="white"/>
  <path d="M37.2949 29.0218C37.7655 28.8833 38.0008 28.3756 37.8596 27.9141C37.7184 27.4525 37.2008 27.2218 36.7773 27.3602C36.3067 27.4987 36.0714 28.0064 36.2126 28.4679C36.3537 28.9295 36.8243 29.1602 37.2949 29.0218Z" fill="white"/>
  <path d="M35.2178 30.8171C35.6884 30.8171 36.1119 30.4017 36.0649 29.9401C36.0649 29.4786 35.6884 29.1094 35.2178 29.1094C34.7472 29.1094 34.3237 29.5248 34.3708 29.9863C34.3708 30.4017 34.7472 30.8171 35.2178 30.8171Z" fill="white"/>
  <path d="M32.9618 32.343C33.3853 32.6199 33.903 32.5276 34.1853 32.1122C34.4677 31.743 34.3735 31.1891 33.9971 30.9122C33.5735 30.6353 33.0559 30.7276 32.7735 31.143C32.4912 31.5584 32.5853 32.066 32.9618 32.343Z" fill="white"/>
  <path d="M31.3632 32.4344C30.8926 32.5729 30.6573 33.0806 30.7985 33.5421C30.9397 34.0037 31.4573 34.2344 31.8809 34.096C32.3514 33.9575 32.5867 33.4498 32.4456 32.9883C32.3044 32.5267 31.7867 32.296 31.3632 32.4344Z" fill="white"/>
  <path d="M29.3945 33.7274C28.9239 33.8659 28.6886 34.3736 28.8298 34.8351C28.9709 35.2966 29.4886 35.5274 29.9121 35.3889C30.3827 35.2505 30.618 34.7428 30.4768 34.2813C30.3356 33.8197 29.865 33.5889 29.3945 33.7274Z" fill="white"/>
  <path d="M29.0147 31.4648C28.5441 31.4648 28.1206 31.8802 28.1676 32.3418C28.1676 32.8033 28.5441 33.1725 29.0147 33.1725C29.4853 33.1725 29.9088 32.7572 29.8618 32.2956C29.8618 31.8341 29.4853 31.4648 29.0147 31.4648Z" fill="white"/>
  <path d="M27.1788 33.3555C26.7082 33.3555 26.2847 33.7709 26.3317 34.2324C26.3317 34.6939 26.7082 35.0632 27.1788 35.0632C27.6494 35.0632 28.0729 34.6478 28.0258 34.1862C28.0258 33.7247 27.6494 33.3555 27.1788 33.3555Z" fill="white"/>
  <path d="M25.9974 36.5391C25.8562 37.0006 26.1386 37.4622 26.6092 37.6006C27.0798 37.7391 27.5503 37.5083 27.6915 37.0468C27.8327 36.5852 27.5503 36.1237 27.0798 35.9852C26.6562 35.8468 26.1386 36.1237 25.9974 36.5391Z" fill="white"/>
  <path d="M28.4354 37.0954C28.7177 37.4646 29.2825 37.5569 29.6589 37.28C30.0354 37.0031 30.1295 36.4954 29.8472 36.08C29.5648 35.7108 29.0001 35.6185 28.6236 35.8954C28.2942 36.2185 28.2001 36.7262 28.4354 37.0954Z" fill="white"/>
  <path d="M31.4103 38.7108C31.5514 38.2493 31.2691 37.7877 30.7985 37.6493C30.3279 37.5108 29.8573 37.7416 29.7162 38.2031C29.575 38.6647 29.8573 39.1262 30.3279 39.2647C30.7985 39.4031 31.2691 39.1724 31.4103 38.7108Z" fill="white"/>
  <path d="M32.7236 41.1589C33.1001 40.882 33.1942 40.3281 32.9119 39.9589C32.6295 39.5897 32.1119 39.4974 31.6883 39.7743C31.3119 40.0512 31.2178 40.6051 31.5001 40.9743C31.7825 41.3435 32.3001 41.4358 32.7236 41.1589Z" fill="white"/>
  <path d="M30.7949 41.8951C30.3243 41.7567 29.8537 42.0336 29.7126 42.4951C29.5714 42.9567 29.8067 43.4182 30.2773 43.5567C30.7479 43.6951 31.2184 43.4182 31.3596 42.9567C31.5008 42.5413 31.2655 42.0798 30.7949 41.8951Z" fill="white"/>
  <path d="M28.7317 40.2358C28.4494 40.6512 28.5435 41.1589 28.967 41.4358C29.3435 41.7128 29.9082 41.6204 30.1905 41.2512C30.4729 40.8358 30.3788 40.3281 29.9552 40.0512C29.5788 39.8204 29.0141 39.8666 28.7317 40.2358Z" fill="white"/>
  <path d="M27.3704 39.447C27.6527 39.8162 28.2174 39.9085 28.5939 39.6316C28.9704 39.3546 29.0645 38.847 28.7821 38.4316C28.4998 38.0623 27.9351 37.97 27.5586 38.247C27.1821 38.5239 27.1351 39.0777 27.3704 39.447Z" fill="white"/>
  <path d="M25.2005 39.0327C24.9181 39.4481 25.0122 39.9558 25.4358 40.2327C25.8122 40.5096 26.3769 40.4173 26.6593 40.0481C26.9416 39.6327 26.8475 39.125 26.424 38.8481C26.0005 38.6173 25.4828 38.6635 25.2005 39.0327Z" fill="white"/>
  <path d="M23.7396 37.418C23.5984 37.8795 23.8808 38.341 24.3514 38.4795C24.8219 38.618 25.2925 38.3872 25.4337 37.9257C25.5749 37.4641 25.2925 37.0026 24.8219 36.8641C24.3514 36.7257 23.8808 36.9564 23.7396 37.418Z" fill="white"/>
  <path d="M25.5759 34.8808C25.2936 34.5116 24.7289 34.4192 24.3524 34.6962C23.9759 34.9731 23.8818 35.4808 24.1642 35.8962C24.4465 36.2654 25.0112 36.3577 25.3877 36.0808C25.7642 35.7577 25.8583 35.25 25.5759 34.8808Z" fill="white"/>
  <path d="M24.8272 32.1094C24.3566 32.1094 23.9331 32.5248 23.9801 32.9863C23.9801 33.4478 24.3566 33.8171 24.8272 33.8171C25.2978 33.8171 25.7213 33.4017 25.6743 32.9401C25.6743 32.4786 25.2978 32.1094 24.8272 32.1094Z" fill="white"/>
  <path d="M26.3788 30.6335C25.9082 30.7719 25.673 31.2796 25.8141 31.7412C25.9553 32.2027 26.4729 32.4335 26.8965 32.295C27.3671 32.1566 27.6024 31.6489 27.4612 31.1873C27.273 30.7719 26.8024 30.5412 26.3788 30.6335Z" fill="white"/>
  <path d="M27.7892 30.4938C28.0715 30.8631 28.6362 30.9554 29.0127 30.6784C29.3892 30.4015 29.4833 29.8938 29.2009 29.4784C28.9186 29.1092 28.3539 29.0169 27.9774 29.2938C27.6009 29.5708 27.5068 30.0784 27.7892 30.4938Z" fill="white"/>
  <path d="M25.7148 28.0048C25.2442 28.1432 25.0089 28.6509 25.1501 29.1124C25.2912 29.574 25.8089 29.8047 26.2324 29.6663C26.703 29.5278 26.9383 29.0201 26.7971 28.5586C26.6089 28.0971 26.1383 27.8663 25.7148 28.0048Z" fill="white"/>
  <path d="M27.9756 26.8047C27.5051 26.8047 27.0815 27.2201 27.1286 27.6816C27.1286 28.1431 27.5051 28.5124 27.9756 28.5124C28.4462 28.5124 28.8698 28.097 28.8227 27.6355C28.8227 27.2201 28.4462 26.8508 27.9756 26.8047Z" fill="white"/>
  <path d="M27.0321 24.8676C26.6556 25.1445 26.5615 25.6984 26.8439 26.0676C27.1262 26.4368 27.6439 26.5292 28.0674 26.2522C28.4439 25.9753 28.538 25.4215 28.2556 25.0522C27.9733 24.683 27.4556 24.6368 27.0321 24.8676Z" fill="white"/>
  <path d="M26.332 22.7899C25.8614 22.9284 25.6261 23.4361 25.7673 23.8976C25.9084 24.3591 26.4261 24.5899 26.8496 24.4514C27.3202 24.313 27.5555 23.8053 27.4143 23.3438C27.2731 22.8822 26.7555 22.6514 26.332 22.7899Z" fill="white"/>
  <path d="M25.1564 21.9118C25.4387 22.281 26.0034 22.3733 26.3799 22.0964C26.7564 21.8195 26.8505 21.3118 26.5681 20.8964C26.2858 20.5272 25.7211 20.4349 25.3446 20.7118C24.9681 20.9887 24.874 21.4964 25.1564 21.9118Z" fill="white"/>
  <path d="M22.7501 21.7282C23.0325 22.0974 23.5972 22.1897 23.9736 21.9128C24.3501 21.6359 24.4442 21.1282 24.1619 20.7128C23.8795 20.3436 23.3148 20.2513 22.9383 20.5282C22.5619 20.8051 22.4678 21.359 22.7501 21.7282Z" fill="white"/>
  <path d="M20.1172 20.8968C20.1172 21.3583 20.5407 21.7737 21.0113 21.7276C21.4819 21.7276 21.8584 21.3583 21.8584 20.8968C21.8584 20.4352 21.4348 20.0199 20.9642 20.066C20.5407 20.066 20.1642 20.4352 20.1172 20.8968Z" fill="white"/>
  <path d="M18.0001 20.8962C18.2825 21.2654 18.8472 21.3577 19.2236 21.0808C19.6001 20.8039 19.6942 20.2962 19.4119 19.8808C19.1295 19.5116 18.5648 19.4192 18.1883 19.6962C17.8119 20.0192 17.7178 20.5269 18.0001 20.8962Z" fill="white"/>
  <path d="M15.7423 20.4313C16.0247 20.8006 16.5894 20.8929 16.9658 20.6159C17.3423 20.339 17.4364 19.8313 17.1541 19.4159C16.8717 19.0467 16.307 18.9544 15.9305 19.2313C15.5541 19.5544 15.4599 20.0621 15.7423 20.4313Z" fill="white"/>
  <path d="M13.6204 20.0641C13.9027 20.4334 14.4674 20.5257 14.8439 20.2488C15.2204 19.9718 15.3145 19.4641 15.0321 19.0488C14.7498 18.6795 14.1851 18.5872 13.8086 18.8641C13.4321 19.1411 13.3851 19.6488 13.6204 20.0641Z" fill="white"/>
  <path d="M13.9053 22.6491C14.3759 22.6491 14.7994 22.2337 14.7524 21.7722C14.7524 21.3106 14.3759 20.9414 13.9053 20.9414C13.4347 20.9414 13.0112 21.3568 13.0583 21.8183C13.0583 22.2799 13.4347 22.6491 13.9053 22.6491Z" fill="white"/>
  <path d="M15.7948 22.8805C16.0771 23.2498 16.6418 23.3421 17.0183 23.0652C17.3948 22.7882 17.4889 22.2805 17.2065 21.8652C16.9242 21.4959 16.3595 21.4036 15.983 21.6805C15.6536 21.9575 15.5595 22.4652 15.7948 22.8805Z" fill="white"/>
  <path d="M14.2821 23.6649C13.9056 23.9418 13.8115 24.4957 14.0939 24.8649C14.3762 25.2342 14.8939 25.3265 15.3174 25.0495C15.6939 24.7726 15.788 24.2188 15.5056 23.8495C15.2233 23.4803 14.6586 23.388 14.2821 23.6649Z" fill="white"/>
  <path d="M13.4806 24.0819C13.6218 23.6204 13.3394 23.1588 12.8688 23.0204C12.3982 22.8819 11.9276 23.1127 11.7865 23.5742C11.6453 24.0358 11.9276 24.4973 12.3982 24.6358C12.8218 24.7742 13.2923 24.5435 13.4806 24.0819Z" fill="white"/>
  <path d="M12.9111 25.3731C12.4876 25.0962 11.97 25.1885 11.6876 25.6039C11.4053 25.9731 11.4994 26.527 11.8758 26.8039C12.2994 27.0808 12.817 26.9885 13.0994 26.5731C13.3817 26.2039 13.2876 25.6501 12.9111 25.3731Z" fill="white"/>
  <path d="M11.461 28.7868C11.7434 29.156 12.3081 29.2483 12.6846 28.9714C13.061 28.6945 13.1552 28.1868 12.8728 27.7714C12.5905 27.4022 12.0258 27.3099 11.6493 27.5868C11.2728 27.8637 11.1787 28.3714 11.461 28.7868Z" fill="white"/>
  <path d="M14.422 27.2673C14.7043 27.6365 15.269 27.7288 15.6455 27.4519C16.022 27.175 16.1161 26.6673 15.8337 26.2519C15.5514 25.8827 14.9867 25.7903 14.6102 26.0673C14.2337 26.3903 14.1396 26.898 14.422 27.2673Z" fill="white"/>
  <path d="M16.9648 23.9891C16.4942 24.1276 16.2589 24.6353 16.4001 25.0968C16.5412 25.5584 17.0589 25.7891 17.4824 25.6507C17.953 25.5122 18.1883 25.0045 18.0471 24.543C17.9059 24.1276 17.4354 23.8507 16.9648 23.9891Z" fill="white"/>
  <path d="M17.3907 27.5407C17.6731 27.9099 18.2378 28.0022 18.6143 27.7253C18.9907 27.4484 19.0849 26.9407 18.8025 26.5253C18.5201 26.1561 17.9554 26.0638 17.579 26.3407C17.2025 26.6176 17.1084 27.1253 17.3907 27.5407Z" fill="white"/>
  <path d="M15.888 28.6483C15.7469 29.1098 16.0292 29.5713 16.4998 29.7098C16.9704 29.8483 17.441 29.6175 17.5821 29.156C17.7233 28.6944 17.441 28.2329 16.9704 28.0944C16.4998 28.0021 16.0292 28.2329 15.888 28.6483Z" fill="white"/>
  <path d="M13.7189 29.667C14.0012 30.0363 14.5659 30.1286 14.9424 29.8055C15.3189 29.5286 15.413 29.0209 15.1306 28.6055C14.8483 28.2363 14.2836 28.144 13.9071 28.467C13.5306 28.7901 13.4365 29.2978 13.7189 29.667Z" fill="white"/>
  <path d="M15.0321 30.8637C14.6556 31.1406 14.5615 31.6945 14.8439 32.0637C15.1262 32.4329 15.6439 32.5252 16.0674 32.2483C16.4439 31.9714 16.538 31.4176 16.2556 31.0483C15.9262 30.6791 15.4086 30.6329 15.0321 30.8637Z" fill="white"/>
  <path d="M17.243 30.3563C16.8666 30.6333 16.7724 31.1871 17.0548 31.5563C17.3372 31.9256 17.8548 32.0179 18.2783 31.7409C18.6548 31.464 18.7489 30.9102 18.4666 30.5409C18.1842 30.1717 17.6666 30.0794 17.243 30.3563Z" fill="white"/>
  <path d="M19.746 31.0983C19.2754 31.2368 19.0401 31.7445 19.1813 32.206C19.3225 32.6676 19.8401 32.8983 20.2637 32.7599C20.7343 32.6214 20.9695 32.1137 20.8284 31.6522C20.6401 31.2368 20.1695 31.006 19.746 31.0983Z" fill="white"/>
  <path d="M21.4335 29.0633C20.9629 29.2018 20.7276 29.7095 20.8688 30.171C21.01 30.6326 21.5276 30.8633 21.9512 30.7249C22.4218 30.5864 22.657 30.0787 22.5159 29.6172C22.3747 29.1557 21.9041 28.9249 21.4335 29.0633Z" fill="white"/>
  <path d="M18.6067 28.787C18.3244 29.2024 18.4185 29.7101 18.842 29.987C19.2185 30.264 19.7832 30.1717 20.0655 29.8024C20.3479 29.387 20.2538 28.8793 19.8302 28.6024C19.4067 28.3255 18.8891 28.4178 18.6067 28.787Z" fill="white"/>
  <path d="M20.1642 27.9561C20.4465 28.3253 21.0112 28.4177 21.3877 28.0946C21.7642 27.8177 21.8583 27.31 21.5759 26.8946C21.2936 26.5253 20.7289 26.433 20.3524 26.7561C19.9759 27.033 19.8818 27.5869 20.1642 27.9561Z" fill="white"/>
  <path d="M19.6913 24.3563C19.2207 24.4948 18.9855 25.0025 19.1266 25.464C19.2678 25.9256 19.7855 26.1563 20.209 26.0179C20.6796 25.8794 20.9149 25.3717 20.7737 24.9102C20.5855 24.4948 20.1149 24.2179 19.6913 24.3563Z" fill="white"/>
  <path d="M18.3751 23.3884C18.6575 23.7576 19.2222 23.8499 19.5986 23.573C19.9751 23.2961 20.0692 22.7884 19.7869 22.373C19.5045 22.0037 18.9398 21.9114 18.5633 22.1884C18.1869 22.4653 18.0928 23.0191 18.3751 23.3884Z" fill="white"/>
  <path d="M21.4335 22.4657C20.9629 22.6042 20.7276 23.1119 20.8688 23.5734C21.01 24.0349 21.5276 24.2657 21.9512 24.1272C22.4218 23.9888 22.657 23.4811 22.5159 23.0196C22.3747 22.6042 21.857 22.3272 21.4335 22.4657Z" fill="white"/>
  <path d="M23.5001 24.2204C23.7825 24.5896 24.3472 24.6819 24.7236 24.405C25.1001 24.1281 25.1942 23.6204 24.9119 23.205C24.6295 22.8358 24.0648 22.7435 23.6883 23.0204C23.3119 23.2973 23.2178 23.805 23.5001 24.2204Z" fill="white"/>
  <path d="M21.9532 26.1579C22.2356 26.5271 22.8003 26.6194 23.1768 26.3425C23.5532 26.0656 23.6474 25.5579 23.365 25.1425C23.0826 24.7733 22.5179 24.681 22.1415 24.9579C21.765 25.2348 21.6709 25.7887 21.9532 26.1579Z" fill="white"/>
  <path d="M24.7274 25.5126C24.3509 25.7895 24.2568 26.3433 24.5392 26.7126C24.8215 27.0818 25.3392 27.1741 25.7627 26.8972C26.1392 26.6203 26.2333 26.0664 25.9509 25.6972C25.6686 25.328 25.1039 25.2357 24.7274 25.5126Z" fill="white"/>
  <path d="M23.1757 27.2157C22.7051 27.3541 22.4698 27.8618 22.611 28.3234C22.7522 28.7849 23.2698 29.0157 23.6934 28.8772C24.1639 28.7388 24.3992 28.2311 24.2581 27.7695C24.1169 27.308 23.6463 27.0772 23.1757 27.2157Z" fill="white"/>
  <path d="M23.9335 29.7118C23.4629 29.8502 23.2276 30.3579 23.3688 30.8195C23.51 31.281 24.0276 31.5118 24.4512 31.3733C24.9218 31.2349 25.157 30.7272 25.0159 30.2656C24.8747 29.8041 24.4041 29.5733 23.9335 29.7118Z" fill="white"/>
  <path d="M22.0351 31.3718C21.5645 31.5102 21.3292 32.0179 21.4704 32.4795C21.6116 32.941 22.1292 33.1718 22.5527 33.0333C23.0233 32.8948 23.2586 32.3872 23.1174 31.9256C22.9763 31.5102 22.5057 31.2795 22.0351 31.3718Z" fill="white"/>
  <path d="M22.9434 33.5865C22.4728 33.4481 22.0022 33.725 21.861 34.1865C21.7198 34.6481 21.9551 35.1096 22.4257 35.2481C22.8963 35.3865 23.3669 35.1096 23.5081 34.6481C23.6492 34.1865 23.3669 33.725 22.9434 33.5865Z" fill="white"/>
  <path d="M21.4313 36.8671C21.5725 37.3286 22.0901 37.5594 22.5607 37.4209C23.0313 37.2825 23.2666 36.7748 23.1254 36.3594C22.9843 35.8978 22.4666 35.6671 21.996 35.8055C21.5254 35.944 21.2901 36.4517 21.4313 36.8671Z" fill="white"/>
  <path d="M19.2266 37.0491C19.2266 37.5107 19.6501 37.9261 20.1207 37.8799C20.5913 37.8799 20.9677 37.5107 20.9677 37.0491C20.9677 36.5876 20.5442 36.1722 20.0736 36.2184C19.603 36.2184 19.2266 36.5876 19.2266 37.0491Z" fill="white"/>
  <path d="M20.4902 33.6803C20.0196 33.5418 19.5491 33.8188 19.4079 34.2803C19.2667 34.7418 19.502 35.2034 19.9726 35.3418C20.4432 35.4803 20.9138 35.2034 21.0549 34.7418C21.1961 34.2803 20.9608 33.8188 20.4902 33.6803Z" fill="white"/>
  <path d="M18.4658 35.0645C18.0423 34.7876 17.5247 34.8799 17.2423 35.2953C16.9599 35.6645 17.0541 36.2184 17.4305 36.4953C17.8541 36.7722 18.3717 36.6799 18.6541 36.2645C18.9364 35.8492 18.8423 35.3415 18.4658 35.0645Z" fill="white"/>
  <path d="M16.9157 33.6327C17.0569 34.0942 17.5745 34.325 18.0451 34.1865C18.5157 34.0481 18.751 33.5404 18.6098 33.125C18.4686 32.6635 17.951 32.4327 17.4804 32.5712C17.0098 32.7096 16.7745 33.1712 16.9157 33.6327Z" fill="white"/>
  <path d="M16.2556 34.0019C15.9733 33.6327 15.4086 33.5403 15.0321 33.8173C14.6556 34.0942 14.5615 34.6019 14.8439 35.0173C15.1262 35.3865 15.6909 35.4788 16.0674 35.2019C16.4439 34.925 16.538 34.4173 16.2556 34.0019Z" fill="white"/>
  <path d="M13.1571 32.1141C12.7806 32.3911 12.6865 32.9449 12.9689 33.3141C13.2512 33.6834 13.7689 33.7757 14.1924 33.4988C14.5689 33.2218 14.663 32.668 14.3806 32.2988C14.0512 31.9295 13.5336 31.8372 13.1571 32.1141Z" fill="white"/>
  <path d="M12.0782 31.2321C12.3606 31.6013 12.9253 31.6936 13.3018 31.4167C13.6782 31.1398 13.7724 30.6321 13.49 30.2167C13.2076 29.8475 12.6429 29.7552 12.2665 30.0321C11.89 30.3552 11.7959 30.8629 12.0782 31.2321Z" fill="white"/>
</svg>