<svg xmlns="http://www.w3.org/2000/svg" width="64" height="64" viewBox="0 0 64 64" fill="none">
  <rect x="0.5" y="0.5" width="63" height="63" rx="31.5" fill="#11385B"/>
  <rect x="0.5" y="0.5" width="63" height="63" rx="31.5" stroke="white"/>
  <path d="M51.9824 24.2796C52.453 24.1411 52.6883 23.6334 52.5471 23.1719C52.4059 22.7103 51.8883 22.4796 51.4648 22.618C50.9942 22.7565 50.7589 23.2642 50.9001 23.7257C51.0412 24.1873 51.5118 24.418 51.9824 24.2796Z" fill="white"/>
  <path d="M51.504 25.5702C51.6452 25.1087 51.3628 24.6471 50.8923 24.5087C50.4217 24.3702 49.9511 24.601 49.8099 25.0625C49.6687 25.524 49.9511 25.9856 50.4217 26.124C50.8452 26.2625 51.3158 26.0317 51.504 25.5702Z" fill="white"/>
  <path d="M50.5527 28.5296C51.0233 28.3911 51.2586 27.8834 51.1174 27.4219C50.9763 26.9603 50.4586 26.7296 50.0351 26.868C49.5645 27.0065 49.3292 27.5142 49.4704 27.9757C49.6116 28.4373 50.0821 28.668 50.5527 28.5296Z" fill="white"/>
  <path d="M49.3818 26.0374C49.3818 25.5759 48.9583 25.1605 48.4877 25.2066C48.0171 25.2066 47.6406 25.5759 47.6406 26.0374C47.6406 26.4989 48.0642 26.9143 48.5347 26.8682C48.9583 26.8682 49.3347 26.4989 49.3818 26.0374Z" fill="white"/>
  <path d="M47.3163 28.7129C47.7869 28.8514 48.2575 28.5745 48.3987 28.1129C48.5399 27.6514 48.3046 27.1899 47.834 27.0514C47.3634 26.9129 46.8928 27.1899 46.7516 27.6514C46.6105 28.0668 46.8457 28.5745 47.3163 28.7129Z" fill="white"/>
  <path d="M49.1593 30.4626C49.4416 30.0472 49.3475 29.5395 48.924 29.2626C48.5475 28.9857 47.9828 29.078 47.7005 29.4472C47.4181 29.8626 47.5122 30.3703 47.9358 30.6472C48.3122 30.9241 48.8769 30.8318 49.1593 30.4626Z" fill="white"/>
  <path d="M48.6759 32.6796C48.8171 32.218 48.5347 31.7565 48.0641 31.618C47.5935 31.4796 47.123 31.7103 46.9818 32.1719C46.8406 32.6334 47.123 33.095 47.5935 33.2334C48.0641 33.3257 48.5347 33.095 48.6759 32.6796Z" fill="white"/>
  <path d="M46.84 31.5233C46.9811 31.0618 46.6988 30.6002 46.2282 30.4618C45.7576 30.3233 45.287 30.5541 45.1458 31.0156C45.0047 31.4772 45.287 31.9387 45.7576 32.0772C46.2282 32.2156 46.6988 31.9849 46.84 31.5233Z" fill="white"/>
  <path d="M45.3905 29.7286C45.8611 29.867 46.3317 29.5901 46.4728 29.1286C46.614 28.667 46.3787 28.2055 45.9081 28.067C45.4375 27.9286 44.967 28.2055 44.8258 28.667C44.6846 29.1286 44.967 29.5901 45.3905 29.7286Z" fill="white"/>
  <path d="M44.5421 31.2516C44.8245 30.8363 44.7303 30.3286 44.3068 30.0516C43.9303 29.7747 43.3656 29.867 43.0833 30.2363C42.8009 30.6516 42.895 31.1593 43.3186 31.4363C43.7421 31.7132 44.2597 31.6209 44.5421 31.2516Z" fill="white"/>
  <path d="M42.1455 31.5222C42.522 31.2453 42.6161 30.6914 42.3337 30.3222C42.0514 29.953 41.5338 29.8607 41.1102 30.1376C40.7338 30.4145 40.6396 30.9683 40.922 31.3376C41.2514 31.7068 41.769 31.7991 42.1455 31.5222Z" fill="white"/>
  <path d="M40.4902 33.8343C40.9608 33.6958 41.1961 33.1881 41.0549 32.7266C40.9138 32.265 40.3961 32.0343 39.9726 32.1727C39.502 32.3112 39.2667 32.8189 39.4079 33.2804C39.5491 33.7419 40.0196 33.9727 40.4902 33.8343Z" fill="white"/>
  <path d="M43.0371 34.0608C43.5077 33.9224 43.743 33.4147 43.6018 32.9531C43.4606 32.4916 42.943 32.2608 42.5195 32.3993C42.0489 32.5377 41.8136 33.0454 41.9548 33.507C42.0959 33.9224 42.5665 34.1993 43.0371 34.0608Z" fill="white"/>
  <path d="M45.1553 34.528C45.6259 34.528 46.0494 34.1126 46.0024 33.6511C46.0024 33.1895 45.6259 32.8203 45.1553 32.8203C44.6847 32.8203 44.2612 33.2357 44.3083 33.6972C44.3083 34.1126 44.6847 34.4819 45.1553 34.528Z" fill="white"/>
  <path d="M48.4052 34.7093C48.4052 34.2477 47.9817 33.8324 47.5111 33.8785C47.0405 33.8785 46.6641 34.2477 46.6641 34.7093C46.6641 35.1708 47.0876 35.5862 47.5582 35.5401C48.0288 35.5401 48.4052 35.1708 48.4052 34.7093Z" fill="white"/>
  <path d="M46.4275 35.8613C46.1451 35.492 45.5804 35.3997 45.204 35.6766C44.8275 35.9536 44.7334 36.4613 45.0157 36.8766C45.2981 37.2459 45.8628 37.3382 46.2393 37.0613C46.6157 36.7382 46.7099 36.2305 46.4275 35.8613Z" fill="white"/>
  <path d="M43.6465 36.6077C44.1171 36.4692 44.3524 35.9615 44.2112 35.5C44.07 35.0385 43.5524 34.8077 43.1288 34.9462C42.6582 35.0846 42.423 35.5923 42.5641 36.0538C42.7053 36.5154 43.223 36.7462 43.6465 36.6077Z" fill="white"/>
  <path d="M40.96 36.2311C41.4306 36.2311 41.8541 35.8157 41.8071 35.3542C41.8071 34.8927 41.4306 34.5234 40.96 34.5234C40.4894 34.5234 40.0659 34.9388 40.113 35.4004C40.113 35.8619 40.4894 36.2311 40.96 36.2311Z" fill="white"/>
  <path d="M38.7012 35.8655C39.1718 35.727 39.407 35.2194 39.2659 34.7578C39.1247 34.2963 38.607 34.0655 38.1835 34.204C37.7129 34.3424 37.4776 34.8501 37.6188 35.3117C37.807 35.727 38.2776 36.004 38.7012 35.8655Z" fill="white"/>
  <path d="M39.0772 38.3561C39.5478 38.3561 39.9713 37.9407 39.9243 37.4792C39.9243 37.0177 39.5478 36.6484 39.0772 36.6484C38.6066 36.6484 38.1831 37.0638 38.2301 37.5254C38.2301 37.9407 38.6066 38.31 39.0772 38.3561Z" fill="white"/>
  <path d="M40.8673 38.3532C41.1497 38.7224 41.7144 38.8147 42.0908 38.5378C42.4673 38.2609 42.5614 37.7532 42.2791 37.3378C41.9967 36.9686 41.432 36.8763 41.0555 37.1532C40.6791 37.4301 40.5849 37.9378 40.8673 38.3532Z" fill="white"/>
  <path d="M44.8181 37.9394C44.5358 37.5702 43.9711 37.4778 43.5946 37.7548C43.2181 38.0317 43.124 38.5394 43.4064 38.9548C43.6887 39.324 44.2534 39.4163 44.6299 39.1394C45.0064 38.8163 45.1005 38.3086 44.8181 37.9394Z" fill="white"/>
  <path d="M45.3009 41.5858C45.4421 41.1243 45.1597 40.6627 44.6891 40.5243C44.2185 40.3858 43.748 40.6166 43.6068 41.0781C43.4656 41.5397 43.748 42.0012 44.2185 42.1397C44.6891 42.232 45.1597 42.0012 45.3009 41.5858Z" fill="white"/>
  <path d="M46.749 43.7093C46.749 43.2477 46.3255 42.8324 45.8549 42.8785C45.3843 42.8785 45.0078 43.2477 45.0078 43.7093C45.0078 44.1708 45.4313 44.5862 45.9019 44.5401C46.3725 44.5401 46.749 44.1708 46.749 43.7093Z" fill="white"/>
  <path d="M42.3809 41.0374C42.8514 40.8989 43.0867 40.3912 42.9456 39.9297C42.8044 39.4682 42.2867 39.2374 41.8632 39.3758C41.3926 39.5143 41.1573 40.022 41.2985 40.4835C41.4397 40.8989 41.9103 41.1758 42.3809 41.0374Z" fill="white"/>
  <path d="M40.3025 39.4688C40.0201 39.0996 39.4554 39.0073 39.079 39.3303C38.7025 39.6073 38.6084 40.1149 38.8907 40.5303C39.1731 40.8996 39.7378 40.9919 40.1143 40.6688C40.4907 40.3919 40.5849 39.838 40.3025 39.4688Z" fill="white"/>
  <path d="M37.5684 42.2796C38.0389 42.1411 38.2742 41.6334 38.1331 41.1719C37.9919 40.7103 37.4742 40.4796 37.0507 40.618C36.5801 40.7565 36.3448 41.2642 36.486 41.7257C36.6272 42.1873 37.1448 42.418 37.5684 42.2796Z" fill="white"/>
  <path d="M35.7384 41.4452C35.8796 40.9837 35.5972 40.5221 35.1266 40.3837C34.656 40.2452 34.1855 40.476 34.0443 40.9375C33.9031 41.399 34.1855 41.8606 34.656 41.999C35.1266 42.1375 35.5972 41.9067 35.7384 41.4452Z" fill="white"/>
  <path d="M33.3877 40.8034C33.7642 40.5265 33.8583 39.9727 33.5759 39.6034C33.2936 39.2342 32.7759 39.1419 32.3524 39.4188C31.9759 39.6958 31.8818 40.2496 32.1642 40.6188C32.4465 40.9881 33.0112 41.0804 33.3877 40.8034Z" fill="white"/>
  <path d="M31.8897 38.7702C32.3603 38.7702 32.7838 38.3548 32.7368 37.8933C32.7368 37.4317 32.3603 37.0625 31.8897 37.0625C31.4191 37.0625 30.9956 37.4779 31.0426 37.9394C31.0426 38.401 31.4191 38.7702 31.8897 38.7702Z" fill="white"/>
  <path d="M34.2324 37.0139C34.703 36.8755 34.9383 36.3678 34.7971 35.9063C34.6559 35.4447 34.1383 35.2139 33.7148 35.3524C33.2442 35.4909 33.0089 35.9986 33.1501 36.4601C33.2912 36.9216 33.7618 37.1524 34.2324 37.0139Z" fill="white"/>
  <path d="M34.1415 39.2297C34.565 39.5066 35.0826 39.4143 35.365 38.9989C35.6474 38.6297 35.5532 38.0758 35.1768 37.7989C34.7532 37.522 34.2356 37.6143 33.9532 38.0297C33.6709 38.4451 33.765 38.9528 34.1415 39.2297Z" fill="white"/>
  <path d="M36.3595 39.6944C36.6418 40.0636 37.2065 40.1559 37.583 39.8329C37.9595 39.5559 38.0536 39.0482 37.7713 38.6329C37.4889 38.2636 36.9242 38.1713 36.5477 38.4944C36.1712 38.7713 36.0771 39.3252 36.3595 39.6944Z" fill="white"/>
  <path d="M36.0274 37.4797C36.4509 37.7566 36.9685 37.6643 37.2509 37.2489C37.5333 36.8797 37.4391 36.3258 37.0627 36.0489C36.6391 35.772 36.1215 35.8643 35.8391 36.2797C35.6038 36.6951 35.6509 37.2028 36.0274 37.4797Z" fill="white"/>
  <path d="M35.8897 35.3171C36.3603 35.3171 36.7838 34.9017 36.7368 34.4401C36.7368 33.9786 36.3603 33.6094 35.8897 33.6094C35.4191 33.6094 34.9956 34.0248 35.0426 34.4863C35.0426 34.9017 35.4191 35.2709 35.8897 35.3171Z" fill="white"/>
  <path d="M37.998 33.4671C38.4686 33.3286 38.7039 32.8209 38.5627 32.3594C38.4216 31.8978 37.9039 31.6671 37.4804 31.8055C37.0098 31.944 36.7745 32.4517 36.9157 32.9132C37.0569 33.3748 37.5275 33.6055 37.998 33.4671Z" fill="white"/>
  <path d="M39.839 31.2956C40.2155 31.0187 40.3096 30.4649 39.9802 30.0956C39.6978 29.7264 39.1802 29.6341 38.7566 29.911C38.3802 30.1879 38.286 30.7418 38.6155 31.111C38.9449 31.4341 39.4625 31.5264 39.839 31.2956Z" fill="white"/>
  <path d="M41.3337 27.836C41.0514 27.4667 40.4867 27.3744 40.1102 27.6975C39.7338 27.9744 39.6396 28.4821 39.922 28.8975C40.2043 29.2667 40.769 29.3591 41.1455 29.036C41.522 28.7591 41.6161 28.2052 41.3337 27.836Z" fill="white"/>
  <path d="M40.7324 26.8655C41.203 26.727 41.4383 26.2194 41.2971 25.7578C41.1559 25.2963 40.6383 25.0655 40.2148 25.204C39.7442 25.3424 39.5089 25.8501 39.6501 26.3117C39.7912 26.7732 40.2618 27.004 40.7324 26.8655Z" fill="white"/>
  <path d="M38.749 25.6233C38.749 25.1618 38.3255 24.7464 37.8549 24.7926C37.3843 24.7926 37.0078 25.1618 37.0078 25.6233C37.0078 26.0849 37.4313 26.5003 37.9019 26.4541C38.3725 26.4541 38.749 26.0849 38.749 25.6233Z" fill="white"/>
  <path d="M36.1228 24.0956C35.8405 23.7264 35.2758 23.6341 34.8993 23.911C34.5228 24.1879 34.4287 24.6956 34.711 25.111C34.9934 25.4802 35.5581 25.5726 35.9346 25.2956C36.311 25.0187 36.3581 24.4649 36.1228 24.0956Z" fill="white"/>
  <path d="M33.2413 24.7858C33.7119 24.7858 34.1354 24.3704 34.0883 23.9089C34.0883 23.4474 33.7119 23.0781 33.2413 23.0781C32.7707 23.0781 32.3472 23.4935 32.3942 23.955C32.3942 24.4166 32.7707 24.7858 33.2413 24.7858Z" fill="white"/>
  <path d="M29.9974 23.4922C29.8562 23.9537 30.1386 24.4153 30.6092 24.5537C31.0798 24.6922 31.5503 24.4614 31.6915 23.9999C31.8327 23.5383 31.5503 23.0768 31.0798 22.9383C30.6562 22.7999 30.1856 23.0307 29.9974 23.4922Z" fill="white"/>
  <path d="M27.6407 24.0485C27.9231 24.4177 28.4878 24.5101 28.8643 24.2331C29.2407 23.9562 29.3349 23.4485 29.0525 23.0331C28.7701 22.6639 28.2054 22.5716 27.829 22.8485C27.4525 23.1254 27.3584 23.6793 27.6407 24.0485Z" fill="white"/>
  <path d="M28.9101 24.9305C28.4395 25.069 28.2042 25.5767 28.3454 26.0382C28.4866 26.4998 29.0042 26.7305 29.4277 26.5921C29.8983 26.4536 30.1336 25.9459 29.9924 25.4844C29.8042 25.0228 29.3336 24.7921 28.9101 24.9305Z" fill="white"/>
  <path d="M31.546 27.0046C32.0165 27.0046 32.4401 26.5892 32.393 26.1276C32.393 25.6661 32.0165 25.2969 31.546 25.2969C31.0754 25.2969 30.6518 25.7123 30.6989 26.1738C30.6989 26.6353 31.0754 27.0046 31.546 27.0046Z" fill="white"/>
  <path d="M29.7148 27.2391C29.2442 27.3776 29.0089 27.8853 29.1501 28.3468C29.2912 28.8084 29.8089 29.0391 30.2324 28.9007C30.703 28.7622 30.9383 28.2545 30.7971 27.793C30.6559 27.3776 30.1854 27.1007 29.7148 27.2391Z" fill="white"/>
  <path d="M30.5225 29.5391C30.0519 29.5391 29.6284 29.9544 29.6755 30.416C29.6755 30.8775 30.0519 31.2468 30.5225 31.2468C30.9931 31.2468 31.4166 30.8314 31.3696 30.3698C31.3696 29.9544 30.9931 29.5852 30.5225 29.5391Z" fill="white"/>
  <path d="M31.7478 32.3066C31.4655 31.9373 30.9008 31.845 30.5243 32.122C30.1478 32.3989 30.0537 32.9066 30.336 33.322C30.6184 33.6912 31.1831 33.7835 31.5596 33.5066C31.936 33.2296 32.0302 32.6758 31.7478 32.3066Z" fill="white"/>
  <path d="M33.6619 30.6016C33.3795 30.2324 32.8148 30.1401 32.4383 30.4631C32.0619 30.7401 31.9678 31.2478 32.2501 31.6631C32.5325 32.0324 33.0972 32.1247 33.4736 31.8016C33.8501 31.5247 33.8972 30.9708 33.6619 30.6016Z" fill="white"/>
  <path d="M35.5056 28.7128C35.2233 28.3436 34.6586 28.2513 34.2821 28.5282C33.9056 28.8051 33.8115 29.3128 34.0939 29.7282C34.3762 30.0974 34.9409 30.1897 35.3174 29.9128C35.6939 29.6359 35.788 29.1282 35.5056 28.7128Z" fill="white"/>
  <path d="M33.0994 28.1581C32.817 27.7889 32.2523 27.6966 31.8758 27.9735C31.4994 28.2504 31.4053 28.8043 31.6876 29.1735C31.97 29.5427 32.5347 29.6351 32.9111 29.3581C33.2876 29.0812 33.3817 28.5274 33.0994 28.1581Z" fill="white"/>
  <path d="M34.4666 26.08C34.1842 25.7108 33.6195 25.6185 33.243 25.8954C32.8666 26.1723 32.7724 26.68 33.0548 27.0954C33.3372 27.4646 33.9019 27.5569 34.2783 27.28C34.6548 27.0031 34.7489 26.4954 34.4666 26.08Z" fill="white"/>
  <path d="M36.9119 26.7284C36.6295 26.3592 36.0648 26.2669 35.6883 26.5438C35.3119 26.8208 35.2178 27.3284 35.5001 27.7438C35.7825 28.1131 36.3472 28.2054 36.7236 27.9284C37.1001 27.6515 37.1472 27.1438 36.9119 26.7284Z" fill="white"/>
  <path d="M39.1212 28.3358C39.2624 27.8743 38.98 27.4127 38.5094 27.2743C38.0389 27.1358 37.5683 27.3666 37.4271 27.8281C37.2859 28.2897 37.5683 28.7512 38.0389 28.8897C38.5094 29.0281 38.98 28.7974 39.1212 28.3358Z" fill="white"/>
  <path d="M37.2949 31.0218C37.7655 30.8833 38.0008 30.3756 37.8596 29.9141C37.7184 29.4525 37.2008 29.2218 36.7773 29.3602C36.3067 29.4987 36.0714 30.0064 36.2126 30.4679C36.3537 30.9295 36.8243 31.1602 37.2949 31.0218Z" fill="white"/>
  <path d="M35.2178 32.8171C35.6884 32.8171 36.1119 32.4017 36.0649 31.9401C36.0649 31.4786 35.6884 31.1094 35.2178 31.1094C34.7472 31.1094 34.3237 31.5248 34.3708 31.9863C34.3708 32.4017 34.7472 32.8171 35.2178 32.8171Z" fill="white"/>
  <path d="M32.9618 34.3391C33.3853 34.616 33.903 34.5237 34.1853 34.1083C34.4677 33.7391 34.3735 33.1852 33.9971 32.9083C33.5735 32.6314 33.0559 32.7237 32.7735 33.1391C32.4912 33.5544 32.5853 34.0621 32.9618 34.3391Z" fill="white"/>
  <path d="M31.3632 34.4305C30.8926 34.569 30.6573 35.0767 30.7985 35.5382C30.9397 35.9998 31.4573 36.2305 31.8809 36.0921C32.3514 35.9536 32.5867 35.4459 32.4456 34.9844C32.3044 34.5228 31.7867 34.2921 31.3632 34.4305Z" fill="white"/>
  <path d="M29.3945 35.7274C28.9239 35.8659 28.6886 36.3736 28.8298 36.8351C28.9709 37.2966 29.4886 37.5274 29.9121 37.3889C30.3827 37.2505 30.618 36.7428 30.4768 36.2813C30.3356 35.8197 29.865 35.5889 29.3945 35.7274Z" fill="white"/>
  <path d="M29.0147 33.4609C28.5441 33.4609 28.1206 33.8763 28.1676 34.3379C28.1676 34.7994 28.5441 35.1686 29.0147 35.1686C29.4853 35.1686 29.9088 34.7532 29.8618 34.2917C29.8618 33.8302 29.4853 33.4609 29.0147 33.4609Z" fill="white"/>
  <path d="M27.1788 35.3594C26.7082 35.3594 26.2847 35.7748 26.3317 36.2363C26.3317 36.6978 26.7082 37.0671 27.1788 37.0671C27.6494 37.0671 28.0729 36.6517 28.0258 36.1901C28.0258 35.7286 27.6494 35.3594 27.1788 35.3594Z" fill="white"/>
  <path d="M25.9974 38.543C25.8562 39.0045 26.1386 39.4661 26.6092 39.6045C27.0798 39.743 27.5503 39.5122 27.6915 39.0507C27.8327 38.5891 27.5503 38.1276 27.0798 37.9891C26.6562 37.8507 26.1386 38.1276 25.9974 38.543Z" fill="white"/>
  <path d="M28.4354 39.0954C28.7177 39.4646 29.2825 39.5569 29.6589 39.28C30.0354 39.0031 30.1295 38.4954 29.8472 38.08C29.5648 37.7108 29.0001 37.6185 28.6236 37.8954C28.2942 38.2185 28.2001 38.7262 28.4354 39.0954Z" fill="white"/>
  <path d="M31.4103 40.7108C31.5514 40.2493 31.2691 39.7877 30.7985 39.6493C30.3279 39.5108 29.8573 39.7416 29.7162 40.2031C29.575 40.6647 29.8573 41.1262 30.3279 41.2647C30.7985 41.4031 31.2691 41.1724 31.4103 40.7108Z" fill="white"/>
  <path d="M32.7236 43.155C33.1001 42.8781 33.1942 42.3242 32.9119 41.955C32.6295 41.5858 32.1119 41.4935 31.6883 41.7704C31.3119 42.0473 31.2178 42.6012 31.5001 42.9704C31.7825 43.3396 32.3001 43.4319 32.7236 43.155Z" fill="white"/>
  <path d="M30.7949 43.8951C30.3243 43.7567 29.8537 44.0336 29.7126 44.4951C29.5714 44.9567 29.8067 45.4182 30.2773 45.5567C30.7479 45.6951 31.2184 45.4182 31.3596 44.9567C31.5008 44.5413 31.2655 44.0798 30.7949 43.8951Z" fill="white"/>
  <path d="M28.7317 42.2319C28.4494 42.6473 28.5435 43.155 28.967 43.4319C29.3435 43.7088 29.9082 43.6165 30.1905 43.2473C30.4729 42.8319 30.3788 42.3242 29.9552 42.0473C29.5788 41.8165 29.0141 41.8627 28.7317 42.2319Z" fill="white"/>
  <path d="M27.3704 41.447C27.6527 41.8162 28.2174 41.9085 28.5939 41.6316C28.9704 41.3546 29.0645 40.847 28.7821 40.4316C28.4998 40.0623 27.9351 39.97 27.5586 40.247C27.1821 40.5239 27.1351 41.0777 27.3704 41.447Z" fill="white"/>
  <path d="M25.2005 41.0288C24.9181 41.4442 25.0122 41.9519 25.4358 42.2288C25.8122 42.5057 26.3769 42.4134 26.6593 42.0442C26.9416 41.6288 26.8475 41.1211 26.424 40.8442C26.0005 40.6134 25.4828 40.6596 25.2005 41.0288Z" fill="white"/>
  <path d="M23.7396 39.4219C23.5984 39.8834 23.8808 40.345 24.3514 40.4834C24.8219 40.6219 25.2925 40.3911 25.4337 39.9296C25.5749 39.468 25.2925 39.0065 24.8219 38.868C24.3514 38.7296 23.8808 38.9603 23.7396 39.4219Z" fill="white"/>
  <path d="M25.5759 36.8847C25.2936 36.5155 24.7289 36.4232 24.3524 36.7001C23.9759 36.977 23.8818 37.4847 24.1642 37.9001C24.4465 38.2693 25.0112 38.3616 25.3877 38.0847C25.7642 37.7616 25.8583 37.2539 25.5759 36.8847Z" fill="white"/>
  <path d="M24.8272 34.1094C24.3566 34.1094 23.9331 34.5248 23.9801 34.9863C23.9801 35.4478 24.3566 35.8171 24.8272 35.8171C25.2978 35.8171 25.7213 35.4017 25.6743 34.9401C25.6743 34.4786 25.2978 34.1094 24.8272 34.1094Z" fill="white"/>
  <path d="M26.3788 32.6296C25.9082 32.768 25.673 33.2757 25.8141 33.7373C25.9553 34.1988 26.4729 34.4296 26.8965 34.2911C27.3671 34.1527 27.6024 33.645 27.4612 33.1834C27.273 32.768 26.8024 32.5373 26.3788 32.6296Z" fill="white"/>
  <path d="M27.7892 32.4938C28.0715 32.8631 28.6362 32.9554 29.0127 32.6784C29.3892 32.4015 29.4833 31.8938 29.2009 31.4784C28.9186 31.1092 28.3539 31.0169 27.9774 31.2938C27.6009 31.5708 27.5068 32.0784 27.7892 32.4938Z" fill="white"/>
  <path d="M25.7148 30.0087C25.2442 30.1471 25.0089 30.6548 25.1501 31.1163C25.2912 31.5779 25.8089 31.8087 26.2324 31.6702C26.703 31.5317 26.9383 31.024 26.7971 30.5625C26.6089 30.101 26.1383 29.8702 25.7148 30.0087Z" fill="white"/>
  <path d="M27.9756 28.8047C27.5051 28.8047 27.0815 29.2201 27.1286 29.6816C27.1286 30.1431 27.5051 30.5124 27.9756 30.5124C28.4462 30.5124 28.8698 30.097 28.8227 29.6355C28.8227 29.2201 28.4462 28.8508 27.9756 28.8047Z" fill="white"/>
  <path d="M27.0321 26.8676C26.6556 27.1445 26.5615 27.6984 26.8439 28.0676C27.1262 28.4368 27.6439 28.5292 28.0674 28.2522C28.4439 27.9753 28.538 27.4215 28.2556 27.0522C27.9733 26.683 27.4556 26.6368 27.0321 26.8676Z" fill="white"/>
  <path d="M26.332 24.7899C25.8614 24.9284 25.6261 25.4361 25.7673 25.8976C25.9084 26.3591 26.4261 26.5899 26.8496 26.4514C27.3202 26.313 27.5555 25.8053 27.4143 25.3438C27.2731 24.8822 26.7555 24.6514 26.332 24.7899Z" fill="white"/>
  <path d="M25.1564 23.9079C25.4387 24.2771 26.0034 24.3694 26.3799 24.0925C26.7564 23.8156 26.8505 23.3079 26.5681 22.8925C26.2858 22.5233 25.7211 22.431 25.3446 22.7079C24.9681 22.9848 24.874 23.4925 25.1564 23.9079Z" fill="white"/>
  <path d="M22.7501 23.7282C23.0325 24.0974 23.5972 24.1897 23.9736 23.9128C24.3501 23.6359 24.4442 23.1282 24.1619 22.7128C23.8795 22.3436 23.3148 22.2513 22.9383 22.5282C22.5619 22.8051 22.4678 23.359 22.7501 23.7282Z" fill="white"/>
  <path d="M20.1172 22.8968C20.1172 23.3583 20.5407 23.7737 21.0113 23.7276C21.4819 23.7276 21.8584 23.3583 21.8584 22.8968C21.8584 22.4352 21.4348 22.0199 20.9642 22.066C20.5407 22.066 20.1642 22.4352 20.1172 22.8968Z" fill="white"/>
  <path d="M18.0001 22.8923C18.2825 23.2615 18.8472 23.3538 19.2236 23.0769C19.6001 22.8 19.6942 22.2923 19.4119 21.8769C19.1295 21.5076 18.5648 21.4153 18.1883 21.6923C17.8119 22.0153 17.7178 22.523 18.0001 22.8923Z" fill="white"/>
  <path d="M15.7423 22.4313C16.0247 22.8006 16.5894 22.8929 16.9658 22.6159C17.3423 22.339 17.4364 21.8313 17.1541 21.4159C16.8717 21.0467 16.307 20.9544 15.9305 21.2313C15.5541 21.5544 15.4599 22.0621 15.7423 22.4313Z" fill="white"/>
  <path d="M13.6204 22.0641C13.9027 22.4334 14.4674 22.5257 14.8439 22.2488C15.2204 21.9718 15.3145 21.4641 15.0321 21.0488C14.7498 20.6795 14.1851 20.5872 13.8086 20.8641C13.4321 21.1411 13.3851 21.6488 13.6204 22.0641Z" fill="white"/>
  <path d="M13.9053 24.6452C14.3759 24.6452 14.7994 24.2298 14.7524 23.7683C14.7524 23.3067 14.3759 22.9375 13.9053 22.9375C13.4347 22.9375 13.0112 23.3529 13.0583 23.8144C13.0583 24.276 13.4347 24.6452 13.9053 24.6452Z" fill="white"/>
  <path d="M15.7948 24.8766C16.0771 25.2459 16.6418 25.3382 17.0183 25.0613C17.3948 24.7843 17.4889 24.2766 17.2065 23.8613C16.9242 23.492 16.3595 23.3997 15.983 23.6766C15.6536 23.9536 15.5595 24.4613 15.7948 24.8766Z" fill="white"/>
  <path d="M14.2821 25.661C13.9056 25.9379 13.8115 26.4918 14.0939 26.861C14.3762 27.2302 14.8939 27.3226 15.3174 27.0456C15.6939 26.7687 15.788 26.2149 15.5056 25.8456C15.2233 25.4764 14.6586 25.3841 14.2821 25.661Z" fill="white"/>
  <path d="M13.4806 26.0858C13.6218 25.6243 13.3394 25.1627 12.8688 25.0243C12.3982 24.8858 11.9276 25.1166 11.7865 25.5781C11.6453 26.0397 11.9276 26.5012 12.3982 26.6397C12.8218 26.7781 13.2923 26.5474 13.4806 26.0858Z" fill="white"/>
  <path d="M12.9111 27.377C12.4876 27.1001 11.97 27.1924 11.6876 27.6078C11.4053 27.977 11.4994 28.5309 11.8758 28.8078C12.2994 29.0847 12.817 28.9924 13.0994 28.577C13.3817 28.2078 13.2876 27.654 12.9111 27.377Z" fill="white"/>
  <path d="M11.461 30.7829C11.7434 31.1521 12.3081 31.2444 12.6846 30.9675C13.061 30.6906 13.1552 30.1829 12.8728 29.7675C12.5905 29.3983 12.0258 29.306 11.6493 29.5829C11.2728 29.8598 11.1787 30.3675 11.461 30.7829Z" fill="white"/>
  <path d="M14.422 29.2673C14.7043 29.6365 15.269 29.7288 15.6455 29.4519C16.022 29.175 16.1161 28.6673 15.8337 28.2519C15.5514 27.8827 14.9867 27.7903 14.6102 28.0673C14.2337 28.3903 14.1396 28.898 14.422 29.2673Z" fill="white"/>
  <path d="M16.9648 25.9891C16.4942 26.1276 16.2589 26.6353 16.4001 27.0968C16.5412 27.5584 17.0589 27.7891 17.4824 27.6507C17.953 27.5122 18.1883 27.0045 18.0471 26.543C17.9059 26.1276 17.4354 25.8507 16.9648 25.9891Z" fill="white"/>
  <path d="M17.3907 29.5407C17.6731 29.9099 18.2378 30.0022 18.6143 29.7253C18.9907 29.4484 19.0849 28.9407 18.8025 28.5253C18.5201 28.1561 17.9554 28.0638 17.579 28.3407C17.2025 28.6176 17.1084 29.1253 17.3907 29.5407Z" fill="white"/>
  <path d="M15.888 30.6444C15.7469 31.1059 16.0292 31.5674 16.4998 31.7059C16.9704 31.8444 17.441 31.6136 17.5821 31.1521C17.7233 30.6905 17.441 30.229 16.9704 30.0905C16.4998 29.9982 16.0292 30.229 15.888 30.6444Z" fill="white"/>
  <path d="M13.7189 31.6631C14.0012 32.0324 14.5659 32.1247 14.9424 31.8016C15.3189 31.5247 15.413 31.017 15.1306 30.6016C14.8483 30.2324 14.2836 30.1401 13.9071 30.4631C13.5306 30.7862 13.4365 31.2939 13.7189 31.6631Z" fill="white"/>
  <path d="M15.0321 32.8598C14.6556 33.1367 14.5615 33.6906 14.8439 34.0598C15.1262 34.429 15.6439 34.5213 16.0674 34.2444C16.4439 33.9675 16.538 33.4137 16.2556 33.0444C15.9262 32.6752 15.4086 32.629 15.0321 32.8598Z" fill="white"/>
  <path d="M17.243 32.3563C16.8666 32.6333 16.7724 33.1871 17.0548 33.5563C17.3372 33.9256 17.8548 34.0179 18.2783 33.7409C18.6548 33.464 18.7489 32.9102 18.4666 32.5409C18.1842 32.1717 17.6666 32.0794 17.243 32.3563Z" fill="white"/>
  <path d="M19.746 33.0983C19.2754 33.2368 19.0401 33.7445 19.1813 34.206C19.3225 34.6676 19.8401 34.8983 20.2637 34.7599C20.7343 34.6214 20.9695 34.1137 20.8284 33.6522C20.6401 33.2368 20.1695 33.006 19.746 33.0983Z" fill="white"/>
  <path d="M21.4335 31.0633C20.9629 31.2018 20.7276 31.7095 20.8688 32.171C21.01 32.6326 21.5276 32.8633 21.9512 32.7249C22.4218 32.5864 22.657 32.0787 22.5159 31.6172C22.3747 31.1557 21.9041 30.9249 21.4335 31.0633Z" fill="white"/>
  <path d="M18.6067 30.7831C18.3244 31.1985 18.4185 31.7062 18.842 31.9831C19.2185 32.2601 19.7832 32.1677 20.0655 31.7985C20.3479 31.3831 20.2538 30.8754 19.8302 30.5985C19.4067 30.3216 18.8891 30.4139 18.6067 30.7831Z" fill="white"/>
  <path d="M20.1642 29.96C20.4465 30.3292 21.0112 30.4216 21.3877 30.0985C21.7642 29.8216 21.8583 29.3139 21.5759 28.8985C21.2936 28.5292 20.7289 28.4369 20.3524 28.76C19.9759 29.0369 19.8818 29.5908 20.1642 29.96Z" fill="white"/>
  <path d="M19.6913 26.3563C19.2207 26.4948 18.9855 27.0025 19.1266 27.464C19.2678 27.9256 19.7855 28.1563 20.209 28.0179C20.6796 27.8794 20.9149 27.3717 20.7737 26.9102C20.5855 26.4948 20.1149 26.2179 19.6913 26.3563Z" fill="white"/>
  <path d="M18.3751 25.3923C18.6575 25.7615 19.2222 25.8538 19.5986 25.5769C19.9751 25.3 20.0692 24.7923 19.7869 24.3769C19.5045 24.0076 18.9398 23.9153 18.5633 24.1923C18.1869 24.4692 18.0928 25.023 18.3751 25.3923Z" fill="white"/>
  <path d="M21.4335 24.4657C20.9629 24.6042 20.7276 25.1119 20.8688 25.5734C21.01 26.0349 21.5276 26.2657 21.9512 26.1272C22.4218 25.9888 22.657 25.4811 22.5159 25.0196C22.3747 24.6042 21.857 24.3272 21.4335 24.4657Z" fill="white"/>
  <path d="M23.5001 26.2204C23.7825 26.5896 24.3472 26.6819 24.7236 26.405C25.1001 26.1281 25.1942 25.6204 24.9119 25.205C24.6295 24.8358 24.0648 24.7435 23.6883 25.0204C23.3119 25.2973 23.2178 25.805 23.5001 26.2204Z" fill="white"/>
  <path d="M21.9532 28.1579C22.2356 28.5271 22.8003 28.6194 23.1768 28.3425C23.5532 28.0656 23.6474 27.5579 23.365 27.1425C23.0826 26.7733 22.5179 26.681 22.1415 26.9579C21.765 27.2348 21.6709 27.7887 21.9532 28.1579Z" fill="white"/>
  <path d="M24.7274 27.5126C24.3509 27.7895 24.2568 28.3433 24.5392 28.7126C24.8215 29.0818 25.3392 29.1741 25.7627 28.8972C26.1392 28.6203 26.2333 28.0664 25.9509 27.6972C25.6686 27.328 25.1039 27.2357 24.7274 27.5126Z" fill="white"/>
  <path d="M23.1757 29.2118C22.7051 29.3502 22.4698 29.8579 22.611 30.3195C22.7522 30.781 23.2698 31.0118 23.6934 30.8733C24.1639 30.7349 24.3992 30.2272 24.2581 29.7656C24.1169 29.3041 23.6463 29.0733 23.1757 29.2118Z" fill="white"/>
  <path d="M23.9335 31.7118C23.4629 31.8502 23.2276 32.3579 23.3688 32.8195C23.51 33.281 24.0276 33.5118 24.4512 33.3733C24.9218 33.2349 25.157 32.7272 25.0159 32.2656C24.8747 31.8041 24.4041 31.5733 23.9335 31.7118Z" fill="white"/>
  <path d="M22.0351 33.3718C21.5645 33.5102 21.3292 34.0179 21.4704 34.4795C21.6116 34.941 22.1292 35.1718 22.5527 35.0333C23.0233 34.8948 23.2586 34.3872 23.1174 33.9256C22.9763 33.5102 22.5057 33.2795 22.0351 33.3718Z" fill="white"/>
  <path d="M22.9434 35.5826C22.4728 35.4442 22.0022 35.7211 21.861 36.1826C21.7198 36.6442 21.9551 37.1057 22.4257 37.2442C22.8963 37.3826 23.3669 37.1057 23.5081 36.6442C23.6492 36.1826 23.3669 35.7211 22.9434 35.5826Z" fill="white"/>
  <path d="M21.4313 38.8671C21.5725 39.3286 22.0901 39.5594 22.5607 39.4209C23.0313 39.2825 23.2666 38.7748 23.1254 38.3594C22.9843 37.8978 22.4666 37.6671 21.996 37.8055C21.5254 37.944 21.2901 38.4517 21.4313 38.8671Z" fill="white"/>
  <path d="M19.2266 39.053C19.2266 39.5146 19.6501 39.93 20.1207 39.8838C20.5913 39.8838 20.9677 39.5146 20.9677 39.053C20.9677 38.5915 20.5442 38.1761 20.0736 38.2223C19.603 38.2223 19.2266 38.5915 19.2266 39.053Z" fill="white"/>
  <path d="M20.4902 35.6842C20.0196 35.5457 19.5491 35.8227 19.4079 36.2842C19.2667 36.7457 19.502 37.2073 19.9726 37.3457C20.4432 37.4842 20.9138 37.2073 21.0549 36.7457C21.1961 36.2842 20.9608 35.8227 20.4902 35.6842Z" fill="white"/>
  <path d="M18.4658 37.0645C18.0423 36.7876 17.5247 36.8799 17.2423 37.2953C16.9599 37.6645 17.0541 38.2184 17.4305 38.4953C17.8541 38.7722 18.3717 38.6799 18.6541 38.2645C18.9364 37.8492 18.8423 37.3415 18.4658 37.0645Z" fill="white"/>
  <path d="M16.9157 35.6327C17.0569 36.0942 17.5745 36.325 18.0451 36.1865C18.5157 36.0481 18.751 35.5404 18.6098 35.125C18.4686 34.6635 17.951 34.4327 17.4804 34.5712C17.0098 34.7096 16.7745 35.1712 16.9157 35.6327Z" fill="white"/>
  <path d="M16.2556 36.0019C15.9733 35.6327 15.4086 35.5403 15.0321 35.8173C14.6556 36.0942 14.5615 36.6019 14.8439 37.0173C15.1262 37.3865 15.6909 37.4788 16.0674 37.2019C16.4439 36.925 16.538 36.4173 16.2556 36.0019Z" fill="white"/>
  <path d="M13.1571 34.1141C12.7806 34.3911 12.6865 34.9449 12.9689 35.3141C13.2512 35.6834 13.7689 35.7757 14.1924 35.4988C14.5689 35.2218 14.663 34.668 14.3806 34.2988C14.0512 33.9295 13.5336 33.8372 13.1571 34.1141Z" fill="white"/>
  <path d="M12.0782 33.236C12.3606 33.6052 12.9253 33.6976 13.3018 33.4206C13.6782 33.1437 13.7724 32.636 13.49 32.2206C13.2076 31.8514 12.6429 31.7591 12.2665 32.036C11.89 32.3591 11.7959 32.8668 12.0782 33.236Z" fill="white"/>
</svg>
