<svg version="1.1" xmlns="http://www.w3.org/2000/svg" xmlns:xlink="http://www.w3.org/1999/xlink" x="0px" y="0px"
	 viewBox="0 0 64 64" enable-background="new 0 0 64 64" xml:space="preserve" width="64" height="64">
<path d="M32,0.5L32,0.5c17.4,0,31.5,14.1,31.5,31.5l0,0c0,17.4-14.1,31.5-31.5,31.5l0,0C14.6,63.5,0.5,49.4,0.5,32
	l0,0C0.5,14.6,14.6,0.5,32,0.5z"/>
<path fill="none" stroke="#FFFFFF" d="M32,0.5L32,0.5c17.4,0,31.5,14.1,31.5,31.5l0,0c0,17.4-14.1,31.5-31.5,31.5l0,0
	C14.6,63.5,0.5,49.4,0.5,32l0,0C0.5,14.6,14.6,0.5,32,0.5z"/>
<path fill="#FFFFFF" d="M52,24.3c0.5-0.1,0.7-0.6,0.6-1.1c-0.1-0.5-0.7-0.7-1.1-0.6c-0.5,0.1-0.7,0.6-0.6,1.1
	C51,24.2,51.5,24.4,52,24.3z M51.5,25.6c0.1-0.5-0.1-0.9-0.6-1.1c-0.5-0.1-0.9,0.1-1.1,0.6c-0.1,0.5,0.1,0.9,0.6,1.1
	C50.8,26.3,51.3,26,51.5,25.6z M50.6,28.5c0.5-0.1,0.7-0.6,0.6-1.1C51,27,50.5,26.7,50,26.9c-0.5,0.1-0.7,0.6-0.6,1.1
	C49.6,28.4,50.1,28.7,50.6,28.5z M49.4,26c0-0.5-0.4-0.9-0.9-0.8c-0.5,0-0.8,0.4-0.8,0.8s0.4,0.9,0.9,0.8C49,26.9,49.3,26.5,49.4,26
	z M47.3,28.7c0.5,0.1,0.9-0.1,1.1-0.6c0.1-0.5-0.1-0.9-0.6-1.1c-0.5-0.1-0.9,0.1-1.1,0.6C46.6,28.1,46.8,28.6,47.3,28.7z M49.2,30.5
	c0.3-0.4,0.2-0.9-0.2-1.2c-0.4-0.3-0.9-0.2-1.2,0.2c-0.3,0.4-0.2,0.9,0.2,1.2C48.3,30.9,48.9,30.8,49.2,30.5z M48.7,32.7
	c0.1-0.5-0.1-0.9-0.6-1.1c-0.5-0.1-0.9,0.1-1.1,0.6c-0.1,0.5,0.1,0.9,0.6,1.1C48.1,33.3,48.5,33.1,48.7,32.7z M46.8,31.5
	c0.1-0.5-0.1-0.9-0.6-1.1c-0.5-0.1-0.9,0.1-1.1,0.6c-0.1,0.5,0.1,0.9,0.6,1.1C46.2,32.2,46.7,32,46.8,31.5z M45.4,29.7
	c0.5,0.1,0.9-0.1,1.1-0.6c0.1-0.5-0.1-0.9-0.6-1.1c-0.5-0.1-0.9,0.1-1.1,0.6C44.7,29.1,45,29.6,45.4,29.7z M44.5,31.3
	c0.3-0.4,0.2-0.9-0.2-1.2c-0.4-0.3-0.9-0.2-1.2,0.2c-0.3,0.4-0.2,0.9,0.2,1.2C43.7,31.7,44.3,31.6,44.5,31.3z M42.1,31.5
	c0.4-0.3,0.5-0.8,0.2-1.2c-0.3-0.4-0.8-0.5-1.2-0.2c-0.4,0.3-0.5,0.8-0.2,1.2C41.3,31.7,41.8,31.8,42.1,31.5z M40.5,33.8
	c0.5-0.1,0.7-0.6,0.6-1.1c-0.1-0.5-0.7-0.7-1.1-0.6c-0.5,0.1-0.7,0.6-0.6,1.1C39.5,33.7,40,34,40.5,33.8z M43,34.1
	c0.5-0.1,0.7-0.6,0.6-1.1c-0.1-0.5-0.7-0.7-1.1-0.6C42,32.5,41.8,33,42,33.5C42.1,33.9,42.6,34.2,43,34.1z M45.2,34.5
	c0.5,0,0.9-0.4,0.8-0.9c0-0.5-0.4-0.8-0.8-0.8s-0.9,0.4-0.8,0.9C44.3,34.1,44.7,34.5,45.2,34.5z M48.4,34.7c0-0.5-0.4-0.9-0.9-0.8
	c-0.5,0-0.8,0.4-0.8,0.8c0,0.5,0.4,0.9,0.9,0.8C48,35.5,48.4,35.2,48.4,34.7z M46.4,35.9c-0.3-0.4-0.8-0.5-1.2-0.2
	c-0.4,0.3-0.5,0.8-0.2,1.2c0.3,0.4,0.8,0.5,1.2,0.2C46.6,36.7,46.7,36.2,46.4,35.9z M43.6,36.6c0.5-0.1,0.7-0.6,0.6-1.1
	s-0.7-0.7-1.1-0.6c-0.5,0.1-0.7,0.6-0.6,1.1C42.7,36.5,43.2,36.7,43.6,36.6z M41,36.2c0.5,0,0.9-0.4,0.8-0.9c0-0.5-0.4-0.8-0.8-0.8
	s-0.9,0.4-0.8,0.9C40.1,35.9,40.5,36.2,41,36.2z M38.7,35.9c0.5-0.1,0.7-0.6,0.6-1.1c-0.1-0.5-0.7-0.7-1.1-0.6
	c-0.5,0.1-0.7,0.6-0.6,1.1C37.8,35.7,38.3,36,38.7,35.9z M39.1,38.4c0.5,0,0.9-0.4,0.8-0.9c0-0.5-0.4-0.8-0.8-0.8
	c-0.5,0-0.9,0.4-0.8,0.9C38.2,37.9,38.6,38.3,39.1,38.4z M40.9,38.4c0.3,0.4,0.8,0.5,1.2,0.2c0.4-0.3,0.5-0.8,0.2-1.2
	c-0.3-0.4-0.8-0.5-1.2-0.2C40.7,37.4,40.6,37.9,40.9,38.4z M44.8,37.9c-0.3-0.4-0.8-0.5-1.2-0.2c-0.4,0.3-0.5,0.8-0.2,1.2
	c0.3,0.4,0.8,0.5,1.2,0.2C45,38.8,45.1,38.3,44.8,37.9z M45.3,41.6c0.1-0.5-0.1-0.9-0.6-1.1c-0.5-0.1-0.9,0.1-1.1,0.6
	c-0.1,0.5,0.1,0.9,0.6,1.1C44.7,42.2,45.2,42,45.3,41.6z M46.7,43.7c0-0.5-0.4-0.9-0.9-0.8c-0.5,0-0.8,0.4-0.8,0.8
	c0,0.5,0.4,0.9,0.9,0.8C46.4,44.5,46.7,44.2,46.7,43.7z M42.4,41c0.5-0.1,0.7-0.6,0.6-1.1c-0.1-0.5-0.7-0.7-1.1-0.6
	c-0.5,0.1-0.7,0.6-0.6,1.1C41.4,40.9,41.9,41.2,42.4,41z M40.3,39.5c-0.3-0.4-0.8-0.5-1.2-0.1c-0.4,0.3-0.5,0.8-0.2,1.2
	c0.3,0.4,0.8,0.5,1.2,0.1C40.5,40.4,40.6,39.8,40.3,39.5z M37.6,42.3c0.5-0.1,0.7-0.6,0.6-1.1c-0.1-0.5-0.7-0.7-1.1-0.6
	c-0.5,0.1-0.7,0.6-0.6,1.1C36.6,42.2,37.1,42.4,37.6,42.3z M35.7,41.4c0.1-0.5-0.1-0.9-0.6-1.1c-0.5-0.1-0.9,0.1-1.1,0.6
	s0.1,0.9,0.6,1.1C35.1,42.1,35.6,41.9,35.7,41.4z M33.4,40.8c0.4-0.3,0.5-0.8,0.2-1.2c-0.3-0.4-0.8-0.5-1.2-0.2
	c-0.4,0.3-0.5,0.8-0.2,1.2C32.4,41,33,41.1,33.4,40.8z M31.9,38.8c0.5,0,0.9-0.4,0.8-0.9c0-0.5-0.4-0.8-0.8-0.8
	c-0.5,0-0.9,0.4-0.8,0.9C31,38.4,31.4,38.8,31.9,38.8z M34.2,37c0.5-0.1,0.7-0.6,0.6-1.1c-0.1-0.5-0.7-0.7-1.1-0.6
	c-0.5,0.1-0.7,0.6-0.6,1.1C33.3,36.9,33.8,37.2,34.2,37z M34.1,39.2c0.4,0.3,0.9,0.2,1.2-0.2c0.3-0.4,0.2-0.9-0.2-1.2
	c-0.4-0.3-0.9-0.2-1.2,0.2C33.7,38.4,33.8,39,34.1,39.2z M36.4,39.7c0.3,0.4,0.8,0.5,1.2,0.1c0.4-0.3,0.5-0.8,0.2-1.2
	c-0.3-0.4-0.8-0.5-1.2-0.1C36.2,38.8,36.1,39.3,36.4,39.7z M36,37.5c0.4,0.3,0.9,0.2,1.2-0.2c0.3-0.4,0.2-0.9-0.2-1.2
	c-0.4-0.3-0.9-0.2-1.2,0.2C35.6,36.7,35.7,37.2,36,37.5z M35.9,35.3c0.5,0,0.9-0.4,0.8-0.9c0-0.5-0.4-0.8-0.8-0.8
	c-0.5,0-0.9,0.4-0.8,0.9C35,34.9,35.4,35.3,35.9,35.3z M38,33.5c0.5-0.1,0.7-0.6,0.6-1.1c-0.1-0.5-0.7-0.7-1.1-0.6
	c-0.5,0.1-0.7,0.6-0.6,1.1C37.1,33.4,37.5,33.6,38,33.5z M39.8,31.3c0.4-0.3,0.5-0.8,0.1-1.2c-0.3-0.4-0.8-0.5-1.2-0.2
	c-0.4,0.3-0.5,0.8-0.1,1.2C38.9,31.4,39.5,31.5,39.8,31.3z M41.3,27.8c-0.3-0.4-0.8-0.5-1.2-0.1c-0.4,0.3-0.5,0.8-0.2,1.2
	c0.3,0.4,0.8,0.5,1.2,0.1C41.5,28.8,41.6,28.2,41.3,27.8z M40.7,26.9c0.5-0.1,0.7-0.6,0.6-1.1c-0.1-0.5-0.7-0.7-1.1-0.6
	c-0.5,0.1-0.7,0.6-0.6,1.1C39.8,26.8,40.3,27,40.7,26.9z M38.7,25.6c0-0.5-0.4-0.9-0.9-0.8c-0.5,0-0.8,0.4-0.8,0.8
	c0,0.5,0.4,0.9,0.9,0.8C38.4,26.5,38.7,26.1,38.7,25.6z M36.1,24.1c-0.3-0.4-0.8-0.5-1.2-0.2c-0.4,0.3-0.5,0.8-0.2,1.2
	c0.3,0.4,0.8,0.5,1.2,0.2C36.3,25,36.4,24.5,36.1,24.1z M33.2,24.8c0.5,0,0.9-0.4,0.8-0.9c0-0.5-0.4-0.8-0.8-0.8s-0.9,0.4-0.8,0.9
	C32.4,24.4,32.8,24.8,33.2,24.8z M30,23.5c-0.1,0.5,0.1,0.9,0.6,1.1c0.5,0.1,0.9-0.1,1.1-0.6c0.1-0.5-0.1-0.9-0.6-1.1
	C30.7,22.8,30.2,23,30,23.5z M27.6,24c0.3,0.4,0.8,0.5,1.2,0.2c0.4-0.3,0.5-0.8,0.2-1.2c-0.3-0.4-0.8-0.5-1.2-0.2
	C27.5,23.1,27.4,23.7,27.6,24z M28.9,24.9c-0.5,0.1-0.7,0.6-0.6,1.1c0.1,0.5,0.7,0.7,1.1,0.6c0.5-0.1,0.7-0.6,0.6-1.1
	C29.8,25,29.3,24.8,28.9,24.9z M31.5,27c0.5,0,0.9-0.4,0.8-0.9c0-0.5-0.4-0.8-0.8-0.8c-0.5,0-0.9,0.4-0.8,0.9
	C30.7,26.6,31.1,27,31.5,27z M29.7,27.2c-0.5,0.1-0.7,0.6-0.6,1.1c0.1,0.5,0.7,0.7,1.1,0.6c0.5-0.1,0.7-0.6,0.6-1.1
	C30.7,27.4,30.2,27.1,29.7,27.2z M30.5,29.5c-0.5,0-0.9,0.4-0.8,0.9c0,0.5,0.4,0.8,0.8,0.8c0.5,0,0.9-0.4,0.8-0.9
	C31.4,30,31,29.6,30.5,29.5z M31.7,32.3c-0.3-0.4-0.8-0.5-1.2-0.2c-0.4,0.3-0.5,0.8-0.2,1.2c0.3,0.4,0.8,0.5,1.2,0.2
	C31.9,33.2,32,32.7,31.7,32.3z M33.7,30.6c-0.3-0.4-0.8-0.5-1.2-0.1c-0.4,0.3-0.5,0.8-0.2,1.2c0.3,0.4,0.8,0.5,1.2,0.1
	C33.9,31.5,33.9,31,33.7,30.6z M35.5,28.7c-0.3-0.4-0.8-0.5-1.2-0.2s-0.5,0.8-0.2,1.2c0.3,0.4,0.8,0.5,1.2,0.2
	C35.7,29.6,35.8,29.1,35.5,28.7z M33.1,28.2c-0.3-0.4-0.8-0.5-1.2-0.2c-0.4,0.3-0.5,0.8-0.2,1.2c0.3,0.4,0.8,0.5,1.2,0.2
	C33.3,29.1,33.4,28.5,33.1,28.2z M34.5,26.1c-0.3-0.4-0.8-0.5-1.2-0.2c-0.4,0.3-0.5,0.8-0.2,1.2c0.3,0.4,0.8,0.5,1.2,0.2
	C34.7,27,34.7,26.5,34.5,26.1z M36.9,26.7c-0.3-0.4-0.8-0.5-1.2-0.2c-0.4,0.3-0.5,0.8-0.2,1.2c0.3,0.4,0.8,0.5,1.2,0.2
	C37.1,27.7,37.1,27.1,36.9,26.7z M39.1,28.3c0.1-0.5-0.1-0.9-0.6-1.1c-0.5-0.1-0.9,0.1-1.1,0.6c-0.1,0.5,0.1,0.9,0.6,1.1
	C38.5,29,39,28.8,39.1,28.3z M37.3,31c0.5-0.1,0.7-0.6,0.6-1.1c-0.1-0.5-0.7-0.7-1.1-0.6c-0.5,0.1-0.7,0.6-0.6,1.1
	C36.4,30.9,36.8,31.2,37.3,31z M35.2,32.8c0.5,0,0.9-0.4,0.8-0.9c0-0.5-0.4-0.8-0.8-0.8s-0.9,0.4-0.8,0.9
	C34.4,32.4,34.7,32.8,35.2,32.8z M33,34.3c0.4,0.3,0.9,0.2,1.2-0.2c0.3-0.4,0.2-0.9-0.2-1.2c-0.4-0.3-0.9-0.2-1.2,0.2
	C32.5,33.6,32.6,34.1,33,34.3z M31.4,34.4c-0.5,0.1-0.7,0.6-0.6,1.1c0.1,0.5,0.7,0.7,1.1,0.6c0.5-0.1,0.7-0.6,0.6-1.1
	C32.3,34.5,31.8,34.3,31.4,34.4z M29.4,35.7c-0.5,0.1-0.7,0.6-0.6,1.1c0.1,0.5,0.7,0.7,1.1,0.6c0.5-0.1,0.7-0.6,0.6-1.1
	C30.3,35.8,29.9,35.6,29.4,35.7z M29,33.5c-0.5,0-0.9,0.4-0.8,0.9c0,0.5,0.4,0.8,0.8,0.8s0.9-0.4,0.8-0.9
	C29.9,33.8,29.5,33.5,29,33.5z M27.2,35.4c-0.5,0-0.9,0.4-0.8,0.9c0,0.5,0.4,0.8,0.8,0.8s0.9-0.4,0.8-0.9
	C28,35.7,27.6,35.4,27.2,35.4z M26,38.5c-0.1,0.5,0.1,0.9,0.6,1.1c0.5,0.1,0.9-0.1,1.1-0.6c0.1-0.5-0.1-0.9-0.6-1.1
	C26.7,37.9,26.1,38.1,26,38.5z M28.4,39.1c0.3,0.4,0.8,0.5,1.2,0.2c0.4-0.3,0.5-0.8,0.2-1.2c-0.3-0.4-0.8-0.5-1.2-0.2
	C28.3,38.2,28.2,38.7,28.4,39.1z M31.4,40.7c0.1-0.5-0.1-0.9-0.6-1.1c-0.5-0.1-0.9,0.1-1.1,0.6c-0.1,0.5,0.1,0.9,0.6,1.1
	C30.8,41.4,31.3,41.2,31.4,40.7z M32.7,43.2c0.4-0.3,0.5-0.8,0.2-1.2c-0.3-0.4-0.8-0.5-1.2-0.2c-0.4,0.3-0.5,0.8-0.2,1.2
	C31.8,43.3,32.3,43.4,32.7,43.2z M30.8,43.9c-0.5-0.1-0.9,0.1-1.1,0.6c-0.1,0.5,0.1,0.9,0.6,1.1c0.5,0.1,0.9-0.1,1.1-0.6
	C31.5,44.5,31.3,44.1,30.8,43.9z M28.7,42.2c-0.3,0.4-0.2,0.9,0.2,1.2c0.4,0.3,0.9,0.2,1.2-0.2c0.3-0.4,0.2-0.9-0.2-1.2
	C29.6,41.8,29,41.9,28.7,42.2z M27.4,41.4c0.3,0.4,0.8,0.5,1.2,0.2c0.4-0.3,0.5-0.8,0.2-1.2c-0.3-0.4-0.8-0.5-1.2-0.2
	C27.2,40.5,27.1,41.1,27.4,41.4z M25.2,41c-0.3,0.4-0.2,0.9,0.2,1.2c0.4,0.3,0.9,0.2,1.2-0.2c0.3-0.4,0.2-0.9-0.2-1.2
	C26,40.6,25.5,40.7,25.2,41z M23.7,39.4c-0.1,0.5,0.1,0.9,0.6,1.1c0.5,0.1,0.9-0.1,1.1-0.6c0.1-0.5-0.1-0.9-0.6-1.1
	C24.4,38.7,23.9,39,23.7,39.4z M25.6,36.9c-0.3-0.4-0.8-0.5-1.2-0.2c-0.4,0.3-0.5,0.8-0.2,1.2c0.3,0.4,0.8,0.5,1.2,0.2
	C25.8,37.8,25.9,37.3,25.6,36.9z M24.8,34.1c-0.5,0-0.9,0.4-0.8,0.9c0,0.5,0.4,0.8,0.8,0.8s0.9-0.4,0.8-0.9
	C25.7,34.5,25.3,34.1,24.8,34.1z M26.4,32.6c-0.5,0.1-0.7,0.6-0.6,1.1c0.1,0.5,0.7,0.7,1.1,0.6c0.5-0.1,0.7-0.6,0.6-1.1
	C27.3,32.8,26.8,32.5,26.4,32.6z M27.8,32.5c0.3,0.4,0.8,0.5,1.2,0.2c0.4-0.3,0.5-0.8,0.2-1.2c-0.3-0.4-0.8-0.5-1.2-0.2
	C27.6,31.6,27.5,32.1,27.8,32.5z M25.7,30c-0.5,0.1-0.7,0.6-0.6,1.1c0.1,0.5,0.7,0.7,1.1,0.6c0.5-0.1,0.7-0.6,0.6-1.1
	C26.6,30.1,26.1,29.9,25.7,30z M28,28.8c-0.5,0-0.9,0.4-0.8,0.9c0,0.5,0.4,0.8,0.8,0.8c0.5,0,0.9-0.4,0.8-0.9
	C28.8,29.2,28.4,28.9,28,28.8z M27,26.9c-0.4,0.3-0.5,0.8-0.2,1.2c0.3,0.4,0.8,0.5,1.2,0.2c0.4-0.3,0.5-0.8,0.2-1.2
	C28,26.7,27.5,26.6,27,26.9z M26.3,24.8c-0.5,0.1-0.7,0.6-0.6,1.1c0.1,0.5,0.7,0.7,1.1,0.6c0.5-0.1,0.7-0.6,0.6-1.1
	C27.3,24.9,26.8,24.7,26.3,24.8z M25.2,23.9c0.3,0.4,0.8,0.5,1.2,0.2c0.4-0.3,0.5-0.8,0.2-1.2c-0.3-0.4-0.8-0.5-1.2-0.2
	C25,23,24.9,23.5,25.2,23.9z M22.8,23.7c0.3,0.4,0.8,0.5,1.2,0.2c0.4-0.3,0.5-0.8,0.2-1.2c-0.3-0.4-0.8-0.5-1.2-0.2
	C22.6,22.8,22.5,23.4,22.8,23.7z M20.1,22.9c0,0.5,0.4,0.9,0.9,0.8c0.5,0,0.8-0.4,0.8-0.8c0-0.5-0.4-0.9-0.9-0.8
	C20.5,22.1,20.2,22.4,20.1,22.9z M18,22.9c0.3,0.4,0.8,0.5,1.2,0.2c0.4-0.3,0.5-0.8,0.2-1.2c-0.3-0.4-0.8-0.5-1.2-0.2
	C17.8,22,17.7,22.5,18,22.9z M15.7,22.4c0.3,0.4,0.8,0.5,1.2,0.2c0.4-0.3,0.5-0.8,0.2-1.2c-0.3-0.4-0.8-0.5-1.2-0.2
	C15.6,21.6,15.5,22.1,15.7,22.4z M13.6,22.1c0.3,0.4,0.8,0.5,1.2,0.2c0.4-0.3,0.5-0.8,0.2-1.2c-0.3-0.4-0.8-0.5-1.2-0.2
	C13.4,21.1,13.4,21.6,13.6,22.1z M13.9,24.6c0.5,0,0.9-0.4,0.8-0.9c0-0.5-0.4-0.8-0.8-0.8s-0.9,0.4-0.8,0.9
	C13.1,24.3,13.4,24.6,13.9,24.6z M15.8,24.9c0.3,0.4,0.8,0.5,1.2,0.2c0.4-0.3,0.5-0.8,0.2-1.2c-0.3-0.4-0.8-0.5-1.2-0.2
	C15.7,24,15.6,24.5,15.8,24.9z M14.3,25.7c-0.4,0.3-0.5,0.8-0.2,1.2c0.3,0.4,0.8,0.5,1.2,0.2c0.4-0.3,0.5-0.8,0.2-1.2
	C15.2,25.5,14.7,25.4,14.3,25.7z M13.5,26.1c0.1-0.5-0.1-0.9-0.6-1.1c-0.5-0.1-0.9,0.1-1.1,0.6c-0.1,0.5,0.1,0.9,0.6,1.1
	C12.8,26.8,13.3,26.5,13.5,26.1z M12.9,27.4c-0.4-0.3-0.9-0.2-1.2,0.2c-0.3,0.4-0.2,0.9,0.2,1.2c0.4,0.3,0.9,0.2,1.2-0.2
	C13.4,28.2,13.3,27.7,12.9,27.4z M11.5,30.8c0.3,0.4,0.8,0.5,1.2,0.2c0.4-0.3,0.5-0.8,0.2-1.2c-0.3-0.4-0.8-0.5-1.2-0.2
	C11.3,29.9,11.2,30.4,11.5,30.8z M14.4,29.3c0.3,0.4,0.8,0.5,1.2,0.2c0.4-0.3,0.5-0.8,0.2-1.2c-0.3-0.4-0.8-0.5-1.2-0.2
	C14.2,28.4,14.1,28.9,14.4,29.3z M17,26c-0.5,0.1-0.7,0.6-0.6,1.1c0.1,0.5,0.7,0.7,1.1,0.6c0.5-0.1,0.7-0.6,0.6-1.1
	C17.9,26.1,17.4,25.9,17,26z M17.4,29.5c0.3,0.4,0.8,0.5,1.2,0.2c0.4-0.3,0.5-0.8,0.2-1.2c-0.3-0.4-0.8-0.5-1.2-0.2
	C17.2,28.6,17.1,29.1,17.4,29.5z M15.9,30.6c-0.1,0.5,0.1,0.9,0.6,1.1s0.9-0.1,1.1-0.6c0.1-0.5-0.1-0.9-0.6-1.1
	C16.5,30,16,30.2,15.9,30.6z M13.7,31.7c0.3,0.4,0.8,0.5,1.2,0.1c0.4-0.3,0.5-0.8,0.2-1.2c-0.3-0.4-0.8-0.5-1.2-0.1
	C13.5,30.8,13.4,31.3,13.7,31.7z M15,32.9c-0.4,0.3-0.5,0.8-0.2,1.2c0.3,0.4,0.8,0.5,1.2,0.2c0.4-0.3,0.5-0.8,0.2-1.2
	C15.9,32.7,15.4,32.6,15,32.9z M17.2,32.4c-0.4,0.3-0.5,0.8-0.2,1.2c0.3,0.4,0.8,0.5,1.2,0.2c0.4-0.3,0.5-0.8,0.2-1.2
	C18.2,32.2,17.7,32.1,17.2,32.4z M19.7,33.1c-0.5,0.1-0.7,0.6-0.6,1.1c0.1,0.5,0.7,0.7,1.1,0.6c0.5-0.1,0.7-0.6,0.6-1.1
	C20.6,33.2,20.2,33,19.7,33.1z M21.4,31.1c-0.5,0.1-0.7,0.6-0.6,1.1c0.1,0.5,0.7,0.7,1.1,0.6c0.5-0.1,0.7-0.6,0.6-1.1
	C22.4,31.2,21.9,30.9,21.4,31.1z M18.6,30.8c-0.3,0.4-0.2,0.9,0.2,1.2c0.4,0.3,0.9,0.2,1.2-0.2c0.3-0.4,0.2-0.9-0.2-1.2
	C19.4,30.3,18.9,30.4,18.6,30.8z M20.2,30c0.3,0.4,0.8,0.5,1.2,0.1c0.4-0.3,0.5-0.8,0.2-1.2c-0.3-0.4-0.8-0.5-1.2-0.1
	C20,29,19.9,29.6,20.2,30z M19.7,26.4c-0.5,0.1-0.7,0.6-0.6,1.1c0.1,0.5,0.7,0.7,1.1,0.6c0.5-0.1,0.7-0.6,0.6-1.1
	C20.6,26.5,20.1,26.2,19.7,26.4z M18.4,25.4c0.3,0.4,0.8,0.5,1.2,0.2c0.4-0.3,0.5-0.8,0.2-1.2c-0.3-0.4-0.8-0.5-1.2-0.2
	C18.2,24.5,18.1,25,18.4,25.4z M21.4,24.5c-0.5,0.1-0.7,0.6-0.6,1.1c0.1,0.5,0.7,0.7,1.1,0.6c0.5-0.1,0.7-0.6,0.6-1.1
	C22.4,24.6,21.9,24.3,21.4,24.5z M23.5,26.2c0.3,0.4,0.8,0.5,1.2,0.2c0.4-0.3,0.5-0.8,0.2-1.2c-0.3-0.4-0.8-0.5-1.2-0.2
	C23.3,25.3,23.2,25.8,23.5,26.2z M22,28.2c0.3,0.4,0.8,0.5,1.2,0.2c0.4-0.3,0.5-0.8,0.2-1.2c-0.3-0.4-0.8-0.5-1.2-0.2
	C21.8,27.2,21.7,27.8,22,28.2z M24.7,27.5c-0.4,0.3-0.5,0.8-0.2,1.2c0.3,0.4,0.8,0.5,1.2,0.2c0.4-0.3,0.5-0.8,0.2-1.2
	C25.7,27.3,25.1,27.2,24.7,27.5z M23.2,29.2c-0.5,0.1-0.7,0.6-0.6,1.1c0.1,0.5,0.7,0.7,1.1,0.6c0.5-0.1,0.7-0.6,0.6-1.1
	C24.1,29.3,23.6,29.1,23.2,29.2z M23.9,31.7c-0.5,0.1-0.7,0.6-0.6,1.1c0.1,0.5,0.7,0.7,1.1,0.6c0.5-0.1,0.7-0.6,0.6-1.1
	C24.9,31.8,24.4,31.6,23.9,31.7z M22,33.4c-0.5,0.1-0.7,0.6-0.6,1.1c0.1,0.5,0.7,0.7,1.1,0.6c0.5-0.1,0.7-0.6,0.6-1.1
	C23,33.5,22.5,33.3,22,33.4z M22.9,35.6c-0.5-0.1-0.9,0.1-1.1,0.6c-0.1,0.5,0.1,0.9,0.6,1.1c0.5,0.1,0.9-0.1,1.1-0.6
	C23.6,36.2,23.4,35.7,22.9,35.6z M21.4,38.9c0.1,0.5,0.7,0.7,1.1,0.6c0.5-0.1,0.7-0.6,0.6-1.1c-0.1-0.5-0.7-0.7-1.1-0.6
	C21.5,37.9,21.3,38.5,21.4,38.9z M19.2,39.1c0,0.5,0.4,0.9,0.9,0.8c0.5,0,0.8-0.4,0.8-0.8c0-0.5-0.4-0.9-0.9-0.8
	C19.6,38.2,19.2,38.6,19.2,39.1z M20.5,35.7c-0.5-0.1-0.9,0.1-1.1,0.6c-0.1,0.5,0.1,0.9,0.6,1.1c0.5,0.1,0.9-0.1,1.1-0.6
	C21.2,36.3,21,35.8,20.5,35.7z M18.5,37.1c-0.4-0.3-0.9-0.2-1.2,0.2c-0.3,0.4-0.2,0.9,0.2,1.2c0.4,0.3,0.9,0.2,1.2-0.2
	C18.9,37.8,18.8,37.3,18.5,37.1z M16.9,35.6c0.1,0.5,0.7,0.7,1.1,0.6c0.5-0.1,0.7-0.6,0.6-1.1c-0.1-0.5-0.7-0.7-1.1-0.6
	C17,34.7,16.8,35.2,16.9,35.6z M16.3,36c-0.3-0.4-0.8-0.5-1.2-0.2c-0.4,0.3-0.5,0.8-0.2,1.2c0.3,0.4,0.8,0.5,1.2,0.2
	C16.4,36.9,16.5,36.4,16.3,36z M13.2,34.1c-0.4,0.3-0.5,0.8-0.2,1.2c0.3,0.4,0.8,0.5,1.2,0.2c0.4-0.3,0.5-0.8,0.2-1.2
	C14.1,33.9,13.5,33.8,13.2,34.1z M12.1,33.2c0.3,0.4,0.8,0.5,1.2,0.2c0.4-0.3,0.5-0.8,0.2-1.2c-0.3-0.4-0.8-0.5-1.2-0.2
	C11.9,32.4,11.8,32.9,12.1,33.2z"/>
</svg>
