<svg version="1.1" xmlns="http://www.w3.org/2000/svg" xmlns:xlink="http://www.w3.org/1999/xlink" x="0px" y="0px"
	 viewBox="0 0 72 72" enable-background="new 0 0 72 72" xml:space="preserve">
<path fill-rule="evenodd" clip-rule="evenodd" d="M36.3,21.6c0-0.2,0.3-0.2,0.3,0l1,4.1c0,0.1,0.1,0.1,0.2,0.1l4.2-0.3
	c0.2,0,0.2,0.2,0.1,0.3l-3.5,2.2c-0.1,0-0.1,0.1-0.1,0.2l1.5,3.9c0.1,0.2-0.1,0.3-0.3,0.2l-3.2-2.7c-0.1,0-0.1,0-0.2,0l-3.2,2.7
	c-0.1,0.1-0.3,0-0.3-0.2l1.5-3.9c0-0.1,0-0.2-0.1-0.2l-3.5-2.2c-0.1-0.1-0.1-0.3,0.1-0.3l4.2,0.3c0.1,0,0.1,0,0.2-0.1L36.3,21.6z
	 M52.8,30.9l0.7-0.3l-0.2,2.2l-16.3,6.5l-0.4,0.1l-0.4-0.1l-15.7-6.3l-0.2-2.2l0.1,0l16.2,6.5L52.8,30.9z M53.1,36.4l-0.3,0.1
	L36.7,43l-15.8-6.3l0.2,2.2L36.3,45l0.4,0.1l0.4-0.1l15.9-6.4L53.1,36.4z M36.7,48.6l16-6.4l-0.2,2.2l-15.4,6.2l-0.4,0.1l-0.4-0.1
	l-14.8-5.9l-0.2-2.2L36.7,48.6z"/>
<path d="M36,72C16.1,72,0,55.9,0,36S16.1,0,36,0s36,16.1,36,36S55.9,72,36,72z M36,2C17.3,2,2,17.3,2,36c0,18.7,15.3,34,34,34
	c18.7,0,34-15.3,34-34C70,17.3,54.7,2,36,2z"/>
</svg>
