<svg version="1.1" xmlns="http://www.w3.org/2000/svg" xmlns:xlink="http://www.w3.org/1999/xlink" x="0px" y="0px"
	 viewBox="0 0 72 72" enable-background="new 0 0 72 72" xml:space="preserve">
<path fill-rule="evenodd" clip-rule="evenodd" d="M43.2,18.1C43.2,18.1,43.2,18.1,43.2,18.1c0,3.2,5.3,10.3,5.5,10.6l0.2,0.3
	l0.2-0.3c0.2-0.3,5.5-7.4,5.5-10.5c0-3.3-2.6-5.9-5.7-5.9c-1.7,0-3.2,0.8-4.3,2C43.7,15.2,43.1,16.6,43.2,18.1
	C43.1,18,43.1,18.1,43.2,18.1L43.2,18.1z M56.6,18c0,2.2-2.1,6-4.1,9c1.4,2.7,2.1,5.7,2.1,8.9c0,10.8-8.8,19.6-19.6,19.6
	c-10.8,0-19.6-8.8-19.6-19.6S24.2,16.3,35,16.3c2.1,0,4.2,0.3,6.1,1c0.4-3.9,3.7-7,7.7-7C53.1,10.3,56.6,13.8,56.6,18z M47.6,30.5
	c-0.5-0.7-1.1-1.5-1.8-2.5c-1,0.2-1.9,0.4-2.8,0.6c0.9,2.2,1.4,4.3,1.6,6.4h8c-0.1-2.1-0.6-4.2-1.4-6.1c-0.4,0.6-0.8,1.1-1.1,1.6
	c0,0.1-0.1,0.1-0.1,0.2l0,0c-0.5,0.6-0.8,1-0.8,1.1l-0.3,0.4l-0.3-0.4c-0.1-0.1-0.4-0.5-0.8-1.1l0,0L47.6,30.5L47.6,30.5z
	 M44.7,26.2c-1.4-2.2-2.8-4.8-3.3-6.7c-1.7-0.7-3.5-1.1-5.4-1.1c2.8,2.8,4.8,5.6,6.2,8.4C43,26.6,43.8,26.4,44.7,26.2z M26,32.7
	c-0.1,0.7-0.2,1.5-0.3,2.3h-8.2c0.2-3.1,1.1-5.9,2.7-8.4c0,0,0.1,0,0.1,0.1c2.2,0.8,4.5,1.4,6.9,1.9C26.7,29.9,26.3,31.3,26,32.7z
	 M17.5,37h8.2c0,1.9,0.3,3.8,1,5.8c-2.1,0.6-4.3,1.5-6.4,2.6C18.6,42.9,17.6,40.1,17.5,37z M33.7,37h-6.1c0,1.7,0.3,3.4,0.9,5.3
	c1.8-0.4,3.5-0.7,5.2-0.8V37z M33.7,35h-6c0.1-0.7,0.1-1.3,0.2-1.9c0.3-1.5,0.7-2.9,1.2-4.2c1.5,0.2,3,0.3,4.5,0.4V35z M35.7,37v4.4
	c2.2,0,4.2,0.3,6.3,0.7c0.2-0.6,0.3-1.2,0.4-1.9c0.2-1.1,0.3-2.1,0.3-3.3H35.7z M33.7,43.5c-1.5,0.1-3,0.3-4.5,0.7
	c1,2.3,2.4,4.7,4.5,7.1V43.5z M35.7,52.5v-9.1c1.9,0,3.8,0.2,5.6,0.6C40,47.6,37.8,50.5,35.7,52.5z M35.7,35v-5.7
	c1.7,0,3.5-0.1,5.3-0.4c0.9,2.1,1.4,4.1,1.6,6.1H35.7z M35.7,27.3c1.4,0,2.9-0.1,4.3-0.3c-1.1-2-2.5-3.9-4.3-6V27.3z M33.7,21.8
	c-1.3,1.4-2.6,3.2-3.6,5.2c1.2,0.1,2.4,0.2,3.6,0.3V21.8z M33.7,19c-2,1.8-4.1,4.5-5.7,7.7c-2.3-0.4-4.6-1-6.7-1.8
	c3-3.7,7.4-6.2,12.4-6.5V19z M44.4,40.6c0.2-1.2,0.3-2.4,0.3-3.6h7.9c-0.2,3-1.1,5.7-2.5,8.1c-2-1-4-1.9-6.2-2.5
	C44.1,42,44.2,41.3,44.4,40.6z M21.3,47c2-1,4-1.8,5.9-2.4c1.2,2.9,3,5.8,5.7,8.8C28.3,52.9,24.2,50.5,21.3,47z M43.3,44.5
	c-1.3,3.6-3.5,6.6-5.6,8.8c4.6-0.7,8.5-3.1,11.2-6.6C47.1,45.9,45.2,45.1,43.3,44.5z M51.4,18c0,1.4-1.2,2.6-2.6,2.6
	c-1.4,0-2.6-1.2-2.6-2.6c0-1.4,1.2-2.6,2.6-2.6C50.3,15.4,51.4,16.6,51.4,18z"/>
<path d="M36,72C16.1,72,0,55.9,0,36S16.1,0,36,0s36,16.1,36,36S55.9,72,36,72z M36,2C17.3,2,2,17.3,2,36c0,18.7,15.3,34,34,34
	c18.7,0,34-15.3,34-34C70,17.3,54.7,2,36,2z"/>
</svg>
