<?xml version="1.0" encoding="utf-8"?>
<!-- Generator: Adobe Illustrator 25.2.1, SVG Export Plug-In . SVG Version: 6.00 Build 0)  -->
<svg version="1.1" id="Layer_1" xmlns="http://www.w3.org/2000/svg" xmlns:xlink="http://www.w3.org/1999/xlink" x="0px" y="0px"
	 viewBox="0 0 800 800" style="enable-background:new 0 0 800 800;" xml:space="preserve">
<style type="text/css">
	.st0{fill:#E02F00;}
	.st1{fill:#FDA305;}
	.st2{fill:#DEEC1E;}
	.st3{fill:#06C5BC;}
	.st4{fill:#172D6A;}
	.st5{fill:#7D0096;}
	.st6{fill:#FFFFFF;}
</style>
<g>
	<g>
		
			<rect x="332.4" y="-332.5" transform="matrix(2.646165e-14 1 -1 2.646165e-14 467.5453 -332.7475)" class="st0" width="135.4" height="799.7"/>
		
			<rect x="332.4" y="-199.6" transform="matrix(2.646165e-14 1 -1 2.646165e-14 600.4005 -199.8922)" class="st1" width="135.4" height="799.7"/>
		
			<rect x="332.4" y="-66.7" transform="matrix(2.646165e-14 1 -1 2.646165e-14 733.2558 -67.037)" class="st2" width="135.4" height="799.7"/>
		
			<rect x="332.4" y="66.1" transform="matrix(2.646165e-14 1 -1 2.646165e-14 866.111 65.8182)" class="st3" width="135.4" height="799.7"/>
		
			<rect x="332.4" y="199" transform="matrix(2.646165e-14 1 -1 2.646165e-14 998.9662 198.6735)" class="st4" width="135.4" height="799.7"/>
		
			<rect x="332.4" y="331.8" transform="matrix(2.646165e-14 1 -1 2.646165e-14 1131.8215 331.5287)" class="st5" width="135.4" height="799.7"/>
	</g>
	<g>
		<g>
			<path class="st6" d="M509.3,300.2c-0.1-1.9-0.2-3.9-0.4-5.8c0-0.2-0.1-0.5-0.1-0.7c-2-16.6-8.6-32.7-19.8-47.6l0,0
				c-75.3-92.8-221.8-40.7-221.7,80.5v194.5c0,0,0.3,76.2,0.3,78.8c0,0,17.7-22.6,24.6-31.6c41.6-54.5,95.6-102.4,147.4-148.6
				c2.3-2.1,28.4-26.7,34.3-33.3c1.4-1.6,2.8-3.2,4.1-4.9c0.6-0.8,1.3-1.5,1.9-2.3c1.1-1.4,2.2-2.7,3.2-4.1c1-1.3,1.9-2.6,2.8-3.9
				c0.8-1.1,1.5-2.1,2.3-3.2c1.7-2.5,3.3-5,4.9-7.7c1.5-2.5,2.9-5.1,4.2-7.7c0.5-0.9,0.8-1.8,1.3-2.7c0.8-1.7,1.6-3.3,2.3-5
				c0.5-1.1,0.9-2.3,1.3-3.4c0.6-1.4,1.1-2.9,1.6-4.3c0.4-1.3,0.8-2.5,1.2-3.8c0.4-1.3,0.8-2.6,1.1-3.9c0.4-1.4,0.7-2.7,1-4.1
				c0.3-1.2,0.5-2.3,0.7-3.5c0.3-1.5,0.5-2.9,0.7-4.4c0.1-1,0.3-2.1,0.4-3.1c0.2-1.6,0.3-3.2,0.4-4.7c0-0.9,0.1-1.7,0.1-2.6
				c0-1.7,0.1-3.4,0-5.2C509.4,301.4,509.3,300.8,509.3,300.2"/>
			<path class="st6" d="M500.2,406.4c-13.7,15.1-29.8,27.8-46.2,40.3c-55.5,42.4-113.3,86.6-159.4,138c-4.7,5.2-9.2,10.5-13.8,15.7
				h126.6C476.9,600,533,548.3,533,484.2C533,454.4,520.6,427,500.2,406.4"/>
		</g>
	</g>
</g>
</svg>
