<svg version="1.1" xmlns="http://www.w3.org/2000/svg" xmlns:xlink="http://www.w3.org/1999/xlink" x="0px" y="0px"
	 viewBox="0 0 72 72" enable-background="new 0 0 72 72" xml:space="preserve">
<path fill-rule="evenodd" clip-rule="evenodd" d="M37.4,49.7C40,46.1,47.9,34.6,47.9,29c0-6.8-5.3-12.3-11.7-12.3S24.4,22.2,24.4,29
	c0,5.6,7.9,17.1,10.5,20.7c0.4,0.6,0.7,1,0.8,1.1l0.4,0.6l0.4-0.6C36.7,50.7,37,50.4,37.4,49.7z M36.2,18.7c5.3,0,9.7,4.5,9.7,10.3
	c0,1.2-0.5,3-1.5,5.3c-1,2.2-2.3,4.6-3.7,6.8c-1.7,2.8-3.4,5.3-4.6,6.9c-1.1-1.6-2.8-4.1-4.6-6.9c-1.4-2.2-2.7-4.6-3.7-6.8
	c-1-2.3-1.5-4.1-1.5-5.3C26.4,23.2,30.9,18.7,36.2,18.7z M36,34.7c3.6,0,6.4-2.9,6.4-6.4s-2.9-6.4-6.4-6.4s-6.4,2.9-6.4,6.4
	S32.4,34.7,36,34.7z M36,32.7c2.4,0,4.4-2,4.4-4.4c0-2.4-2-4.4-4.4-4.4c-2.4,0-4.4,2-4.4,4.4C31.6,30.7,33.6,32.7,36,32.7z
	 M10.6,51.4c0-0.6,0.4-1,1-1h3.2c0.6,0,1,0.4,1,1c0,0.6-0.4,1-1,1h-3.2C11,52.4,10.6,52,10.6,51.4z M18,51.4c0-0.6,0.4-1,1-1h3.2
	c0.6,0,1,0.4,1,1c0,0.6-0.4,1-1,1H19C18.4,52.4,18,52,18,51.4z M25.4,51.4c0-0.6,0.4-1,1-1h3.2c0.6,0,1,0.4,1,1c0,0.6-0.4,1-1,1
	h-3.2C25.8,52.4,25.4,52,25.4,51.4z M41.4,51.4c0-0.6,0.4-1,1-1h3.2c0.6,0,1,0.4,1,1c0,0.6-0.4,1-1,1h-3.2
	C41.9,52.4,41.4,52,41.4,51.4z M48.8,51.4c0-0.6,0.4-1,1-1H53c0.6,0,1,0.4,1,1c0,0.6-0.4,1-1,1h-3.2C49.3,52.4,48.8,52,48.8,51.4z
	 M56.3,51.4c0-0.6,0.4-1,1-1h3.2c0.6,0,1,0.4,1,1c0,0.6-0.4,1-1,1h-3.2C56.7,52.4,56.3,52,56.3,51.4z"/>
<path d="M36,72C16.1,72,0,55.9,0,36S16.1,0,36,0s36,16.1,36,36S55.9,72,36,72z M36,2C17.3,2,2,17.3,2,36c0,18.7,15.3,34,34,34
	c18.7,0,34-15.3,34-34C70,17.3,54.7,2,36,2z"/>
</svg>
