<svg version="1.1" xmlns="http://www.w3.org/2000/svg" xmlns:xlink="http://www.w3.org/1999/xlink" x="0px" y="0px"
	 viewBox="0 0 72 72" enable-background="new 0 0 72 72" xml:space="preserve">
<path fill-rule="evenodd" clip-rule="evenodd" d="M51.4,25.2c-0.1-0.1-0.2-0.3-0.3-0.4c0-0.1,0.1-0.2,0.1-0.4c0-0.6-0.4-1-1-1H37
	v-9.3c0-0.6-0.4-1-1-1s-1,0.4-1,1v9.3H21.9c-0.6,0-1,0.4-1,1c0,0.1,0,0.2,0.1,0.4c-0.1,0.1-0.2,0.3-0.3,0.4
	c-1.8,2.5-5.2,7.8-5.2,10.6c0,3.7,2.9,6.7,6.4,6.7c3.5,0,6.4-3,6.4-6.7c0-2.7-3.2-7.7-5-10.3H35v26c0,0.1,0,0.2,0,0.3h-6.8
	c-0.6,0-1,0.4-1,1s0.4,1,1,1h15.4c0.6,0,1-0.4,1-1s-0.4-1-1-1H37c0-0.1,0-0.2,0-0.3v-26h11.8c-1.8,2.6-5,7.7-5,10.3
	c0,3.7,2.9,6.7,6.4,6.7c3.5,0,6.4-3,6.4-6.7C56.6,33,53.1,27.7,51.4,25.2z M21.9,40.5c-2.3,0-4.4-2-4.4-4.6c0.2,0.1,0.4,0.2,0.6,0.2
	h7.7c0.2,0,0.4-0.1,0.6-0.2C26.2,38.5,24.2,40.5,21.9,40.5z M23.6,29.6c0.7,1.2,1.4,2.5,1.9,3.6c0.1,0.3,0.2,0.6,0.3,0.8
	c-0.1,0-0.1,0-0.2,0H18c-0.1,0-0.1,0-0.2,0c0.1-0.3,0.2-0.5,0.3-0.8c0.5-1.2,1.2-2.4,1.9-3.6c0.6-1,1.2-1.9,1.7-2.7
	C22.4,27.7,23,28.6,23.6,29.6z M46.5,33.2c0.5-1.2,1.2-2.4,1.9-3.6c0.6-1,1.2-1.9,1.7-2.7c0.5,0.8,1.1,1.7,1.7,2.7
	c0.7,1.2,1.4,2.5,1.9,3.6c0.1,0.3,0.2,0.6,0.3,0.8c-0.1,0-0.1,0-0.2,0h-7.7c-0.1,0-0.1,0-0.2,0C46.2,33.8,46.3,33.5,46.5,33.2z
	 M50.1,40.5c-2.3,0-4.4-2-4.4-4.6c0.2,0.1,0.4,0.2,0.6,0.2H54c0.2,0,0.4-0.1,0.6-0.2C54.5,38.5,52.5,40.5,50.1,40.5z"/>
<g>
	<path d="M36,72C16.1,72,0,55.9,0,36S16.1,0,36,0s36,16.1,36,36S55.9,72,36,72z M36,2C17.3,2,2,17.3,2,36c0,18.7,15.3,34,34,34
		c18.7,0,34-15.3,34-34C70,17.3,54.7,2,36,2z"/>
</g>
</svg>
