<svg version="1.1" xmlns="http://www.w3.org/2000/svg" xmlns:xlink="http://www.w3.org/1999/xlink" x="0px" y="0px"
	 viewBox="0 0 72 72" enable-background="new 0 0 72 72" xml:space="preserve">
<path fill-rule="evenodd" clip-rule="evenodd" d="M27.1,13.7L27.1,13.7c0-0.1,0-0.1,0-0.1c0,0,0-0.1,0-0.1c0-0.1-0.1-0.3-0.1-0.4
	c0-0.1,0-0.1-0.1-0.2c-0.1-0.2-0.1-0.4-0.2-0.5c0,0,0-0.1,0-0.1c-0.1-0.2-0.2-0.4-0.3-0.7c0,0,0,0,0-0.1l0,0c0,0,0-0.1-0.1-0.1
	c0-0.1-0.1-0.2-0.1-0.2l0,0c0-0.1-0.1-0.2-0.1-0.2l-0.1-0.2c-0.1-0.2-0.2-0.4-0.3-0.5v0c0,0,0,0,0,0v0c0,0,0-0.1-0.1-0.1
	c0,0,0,0,0,0c0,0,0,0,0,0l0,0c-0.1-0.2-0.2-0.4-0.4-0.6c0,0,0,0,0-0.1c0,0,0,0,0-0.1v0l0,0c-0.1-0.1-0.2-0.3-0.3-0.4v0l0,0
	c0,0,0-0.1-0.1-0.1l0,0c0,0,0,0-0.1-0.1l0,0c0,0-0.1-0.1-0.1-0.1l0,0l0,0l0,0c-0.1-0.1-0.1-0.1-0.2-0.2c0,0,0,0,0-0.1v0
	c0,0,0,0,0-0.1l0,0C24,8,23.9,7.8,23.8,7.7c-0.1-0.1-0.1-0.2-0.2-0.2c0,0,0,0,0,0c0,0-0.1-0.1-0.1-0.1c0,0,0,0,0,0c0,0,0,0,0,0
	c0,0,0,0,0,0L23.3,7l-0.1,0.2l-0.1,0.1c0,0,0,0,0,0c0,0,0,0-0.1,0.1l0,0c0,0,0,0,0,0.1c0,0,0,0,0,0c0,0,0,0,0,0
	c0,0.1-0.1,0.2-0.2,0.2c-0.1,0.1-0.1,0.2-0.2,0.3l0,0h0c0,0-0.1,0.1-0.1,0.1v0c0,0-0.1,0.1-0.1,0.1c-0.1,0.1-0.1,0.2-0.2,0.2
	c0,0-0.1,0.1-0.1,0.1L22,8.8C22,8.9,21.9,9,21.8,9.1l0,0c0,0.1-0.1,0.1-0.1,0.2c0,0,0,0.1,0,0.1c0,0,0,0,0,0.1l-0.1,0.1v0
	c-0.1,0.2-0.2,0.3-0.3,0.5c0,0,0,0,0,0.1c0,0,0,0,0,0.1c-0.1,0.1-0.1,0.2-0.2,0.3c0,0.1-0.1,0.1-0.1,0.2l-0.1,0.2
	c0,0.1-0.1,0.1-0.1,0.2c-0.1,0.1-0.1,0.2-0.2,0.3c0,0,0,0.1,0,0.1c0,0,0,0.1,0,0.1c-0.1,0.2-0.2,0.5-0.3,0.7c0,0,0,0.1,0,0.1
	c0,0.1-0.1,0.1-0.1,0.2c0,0.1-0.1,0.1-0.1,0.2c0,0.1,0,0.1-0.1,0.1l0,0c0,0.1,0,0.1-0.1,0.2c0,0.2-0.1,0.3-0.1,0.4c0,0,0,0.1,0,0.1
	c0,0,0,0,0,0.1c0,0.2-0.1,0.4-0.1,0.5c0,1.4,0.8,2.7,1.9,3.4l0,0c0.6,0.3,1.2,0.5,1.9,0.5c1.9,0,3.5-1.5,3.8-3.3
	c0-0.2,0.1-0.4,0.1-0.6C27.2,14,27.1,13.8,27.1,13.7z M23.3,16.1c-1,0-1.9-0.8-1.9-1.9c0,0,0,0,0-0.1l0,0c0-0.1,0-0.1,0.1-0.2
	c0.1-0.2,0.2-0.5,0.3-0.8c0.3-0.6,0.7-1.3,1.1-2l0.1-0.1l0,0c0.1-0.2,0.2-0.3,0.3-0.5c0,0,0.1,0.1,0.1,0.2l0,0c0,0,0,0.1,0.1,0.1
	c0.1,0.1,0.1,0.1,0.1,0.2c0,0,0,0.1,0.1,0.1c0.4,0.7,0.8,1.4,1.1,2c0.1,0.3,0.2,0.6,0.3,0.8c0,0.1,0,0.2,0.1,0.2c0,0,0,0.1,0,0.1
	C25.2,15.2,24.3,16.1,23.3,16.1z"/>
<path fill-rule="evenodd" clip-rule="evenodd" d="M52.4,51.3L52.4,51.3l-2-1.2l2-3.8c0.4-0.8,0.1-1.8-0.6-2.2l-3.5-2
	c-0.7-0.4-1.6-0.2-2.1,0.4l-2.7,3.5c-0.2-1.7-0.4-3-0.4-3.5c0-1.4-0.8-2.4-1.6-3.1c-0.6-0.4-1.2-0.7-1.7-0.9l0-0.1
	c0.1-0.2,0.1-0.5,0-0.7c0-0.1,0-0.2,0-0.4c0.8-1,1.2-2.3,1.1-3.6l-0.3-3.8c0-0.2-0.1-0.3-0.1-0.5l0,0c0,0,0.1,0,0.1-0.1l2.2-2.6
	c0.1-0.1,0.1-0.3,0-0.4c-0.1-0.1-0.2-0.2-0.4-0.1L40,27l1.8-4c0.1-0.1,0-0.3-0.1-0.4c-0.1-0.1-0.3-0.1-0.4,0l-3.3,2.9
	c-0.1,0.1-0.1,0.2-0.1,0.2c0,0,0,0,0,0.1c-0.4-0.2-0.8-0.3-1.2-0.4l-1.2-6.6c0-0.2-0.2-0.3-0.3-0.3c-0.2,0-0.3,0.1-0.3,0.3l-0.6,6.7
	c-0.5,0.1-0.9,0.3-1.3,0.6l-2.8-3c-0.1-0.1-0.3-0.1-0.4,0c-0.1,0.1-0.2,0.2-0.1,0.4l1.7,4.2C31.1,27.8,31,28,31,28.1l-1.6-0.4
	c-0.1,0-0.3,0-0.4,0.2s0,0.3,0.1,0.4l1.5,1.4c-0.1,0.4-0.1,0.8-0.1,1.2l0.3,3c0-0.1-0.1-0.2-0.2-0.3c0,0,0-0.1-0.1-0.1
	c-0.6-0.9-1.2-1.8-1.7-2.4c-0.3-0.4-0.9-0.5-1.3-0.2l-1.4-9.3h1.3c0.6,0,1-0.4,1-1c0-0.5-0.4-1-1-1H19c-0.2,0-0.3,0-0.4,0.1
	c-0.1,0.1-0.2,0.2-0.4,0.3c-0.1,0.2-0.2,0.4-0.2,0.6c0,0.6,0.5,1,1,1h1.6l0,0.5c0.1,2,0.2,5,0.6,7.5c0.2,1.3,0.4,2.5,0.6,3.4
	c0.1,0.3,0.2,0.6,0.3,0.8l0,0c-0.2,0.1-0.4,0.2-0.6,0.4c-0.3,0.2-0.6,0.5-0.8,1c-0.2,0.5-0.2,1,0.1,1.5c0.1,0.2,0.2,0.4,0.3,0.7l0,0
	l0.1,0.2c0,0,0,0,0,0c0,0,0,0,0,0c0,0.1,0,0.1,0.1,0.2c0.2,0.5,0.4,1,0.7,1.5c0.3,0.5,0.6,1,1.2,1.4c0.1,0,0.1,0.1,0.2,0.1h0
	c0,0,0.1,0,0.1,0c0,0,0,0,0,0c0,0,0,0,0,0.1c-0.2,0.5,0,1.1,0.6,1.3l2.3,0.9c-0.3,0.8-0.6,2.1-1,3.7c-0.1,0.7-0.2,1.2-0.2,1.5
	c0,0.1,0,0.4,0.2,0.7c0.1,0.2,0.2,0.4,0.5,0.5l0.1,0c-0.4,0.5-0.8,1-1,1.3c-0.3,0.5-0.5,1-0.6,1.5c0,0.5,0.1,1,0.3,1.4
	c0.4,0.7,1.1,1.4,1.6,1.8c0,0,0.1,0,0.1,0.1h0c0,0,0,0,0.1,0.1c0.1,0.1,0.2,0.1,0.2,0.2c0.1,0.1,0.2,0.2,0.3,0.3
	c0.1,0.1,0.1,0.1,0.2,0.2c-0.8,0.4-1.2,1.2-1.4,2c-0.2,0.8-0.2,1.7-0.1,2.6c0,0.3,0.1,0.7,0.1,1c1.3,0.5,2.6,1,4,1.3l9.6-23
	c0.4,0.1,0.9,0.3,1.3,0.7c0.5,0.4,0.8,0.9,0.8,1.5c0,0.7,0.2,2.2,0.4,4.1c0.2,1.7,0.5,3.6,0.8,5.7c0,0.1,0,0.3,0.1,0.4
	c0,0.1,0,0.3,0.1,0.4c0.3,2.3,0.6,4.6,0.9,6.5c0.1,1.2,0.3,2.2,0.3,3c0.7-0.2,1.3-0.5,1.9-0.8c-0.1-0.7-0.2-1.6-0.3-2.5
	c-0.1-0.4-0.1-0.9-0.2-1.4l-0.1-0.4c0,0,0,0,0,0c0,0,0,0,0.1,0l2.6,1.5c0.5,0.3,1.1,0.5,1.7,0.6c1.8,0.3,3.6-0.6,4.6-2.2
	c0.5-0.8,0.6-1.6,0.6-2.5C54.6,53.5,53.8,52.1,52.4,51.3z M24.3,23L24.3,23l1.4,9c-0.2,0.3-0.5,0.6-0.9,0.9
	c-0.4,0.3-0.6,0.4-0.8,0.4c-0.1-0.2-0.2-0.5-0.3-0.8c-0.2-0.8-0.4-1.9-0.6-3.1c-0.3-2.1-0.4-4.5-0.5-6.3H24.3z M24.1,39
	C24.1,39,24.1,39,24.1,39L24.1,39C24.1,39,24.1,39,24.1,39c-0.1-0.1-0.3-0.3-0.5-0.7C23.4,38,23.2,37.5,23,37c0,0,0-0.1,0-0.1
	c0,0,0-0.1,0-0.1c-0.1-0.4-0.3-0.7-0.4-1c0,0,0.1-0.1,0.1-0.1l0,0c0.3-0.2,0.7-0.4,1.1-0.5c0.9,0.1,1.8-0.4,2.3-0.8
	c0.7-0.5,1.2-1.2,1.5-1.7v0c0.4,0.5,0.8,1.1,1.2,1.7c0.3,0.4,0.5,0.8,0.6,1.1c0.1,0.2,0.1,0.3,0.2,0.4c0,0,0,0.1,0,0.1c0,0,0,0,0,0
	c0,0,0,0,0,0c-0.1,0.1-0.1,0.2-0.3,0.3c-0.3,0.3-0.8,0.6-1.4,1c-1.1,0.7-2.5,1.3-3.4,1.6C24.3,39.1,24.2,39.1,24.1,39z M25.6,40.8
	c1-0.4,2.3-1,3.3-1.6c0.6-0.4,1.2-0.8,1.7-1.2c0.2-0.2,0.5-0.5,0.6-0.8c0.1-0.1,0.1-0.3,0.2-0.4c0.8,1.4,2.2,2.3,3.8,2.5
	c-3,2.8-5.7,5.6-7.6,8c-0.1-0.2-0.2-0.3-0.4-0.4h0c0.5-2.2,1-3.5,1.1-3.8l0.5-1L25.6,40.8z M27.6,62.7L27.6,62.7
	c-0.1-0.6-0.2-1.2-0.3-1.7c-0.1-0.8-0.1-1.4,0.1-1.9c0.1-0.5,0.3-0.7,0.5-0.8c0.4-0.2,0.8-0.5,1-1c0.2-0.5,0.1-1.1-0.1-1.4
	c-0.2-0.3-0.4-0.6-0.7-0.9c-0.1-0.1-0.3-0.3-0.4-0.4c-0.1-0.1-0.1-0.1-0.2-0.2c0,0,0,0-0.1-0.1h0c0,0,0,0-0.1-0.1
	c-0.5-0.5-1-0.9-1.2-1.3c-0.1-0.2-0.1-0.3-0.1-0.4c0-0.1,0-0.2,0.2-0.4c1.6-2.2,5.5-7.1,10.6-11.6L27.6,62.7z M36.1,36.8
	c-1.4,0.1-2.7-0.9-2.8-2.3L33,30.6c-0.1-1.4,0.9-2.7,2.3-2.8c1.4-0.1,2.7,0.9,2.8,2.3l0.3,3.8C38.6,35.4,37.5,36.7,36.1,36.8z
	 M44.9,49.9L44.9,49.9l-0.4-1.8l3.1-4.1l2.9,1.7l-1.9,3.6C47.3,49,45.9,49.2,44.9,49.9z M51.8,56.2c-0.6,1-1.8,1.3-2.8,0.7l-1.8-1
	l-0.9-0.5c-0.2-0.1-0.3-0.2-0.5-0.4L45.9,55c-0.1-0.2-0.2-0.3-0.3-0.5c0,0,0,0,0,0c-0.1-0.4-0.2-0.8-0.1-1.2c0-0.2,0.1-0.3,0.2-0.5
	c0,0,0,0,0,0c0,0,0,0,0,0c0,0,0,0,0,0c0.1-0.1,0.2-0.2,0.2-0.3c0,0,0,0,0,0c0,0,0,0,0.1-0.1c0.1-0.1,0.2-0.1,0.2-0.2
	c0,0,0.1-0.1,0.1-0.1c0.1,0,0.2-0.1,0.3-0.1c0,0,0,0,0,0c0,0,0,0,0,0c0,0,0,0,0,0c0,0,0,0,0,0c0.1,0,0.2-0.1,0.3-0.1h0l0,0h0
	c0.2,0,0.4,0,0.5,0c0,0,0.1,0,0.1,0c0,0,0,0,0,0c0.2,0,0.3,0.1,0.5,0.2c0,0,0,0,0,0l0.7,0.4l1.9,1.1c0.6,0.4,1,1,1,1.6
	C52.1,55.5,52,55.9,51.8,56.2L51.8,56.2z"/>
<path d="M36,72C16.1,72,0,55.9,0,36S16.1,0,36,0s36,16.1,36,36S55.9,72,36,72z M36,2C17.3,2,2,17.3,2,36c0,18.7,15.3,34,34,34
	c18.7,0,34-15.3,34-34C70,17.3,54.7,2,36,2z"/>
</svg>
