<svg version="1.1" xmlns="http://www.w3.org/2000/svg" xmlns:xlink="http://www.w3.org/1999/xlink" x="0px" y="0px"
	 viewBox="0 0 72 72" enable-background="new 0 0 72 72" xml:space="preserve">
<path fill-rule="evenodd" clip-rule="evenodd" d="M37,18c0-0.6-0.4-1-1-1s-1,0.4-1,1v1.3h-8.3V18c0-0.6-0.4-1-1-1s-1,0.4-1,1v1.3
	h-0.3c-3.6,0-6.4,2.9-6.4,6.4v23.1c0,3.6,2.9,6.4,6.4,6.4h23.1c3.6,0,6.4-2.9,6.4-6.4V25.7c0-3.6-2.9-6.4-6.4-6.4h-0.3V18
	c0-0.6-0.4-1-1-1c-0.6,0-1,0.4-1,1v1.3H37V18z M24.7,21.3h-0.3c-2.4,0-4.4,2-4.4,4.4v4.1h32v-4.1c0-2.4-2-4.4-4.4-4.4h-0.3v3.1
	c0,0.6-0.4,1-1,1c-0.6,0-1-0.4-1-1v-3.1H37v3.1c0,0.6-0.4,1-1,1s-1-0.4-1-1v-3.1h-8.3v3.1c0,0.6-0.4,1-1,1s-1-0.4-1-1V21.3z
	 M20,48.9v-17h32v17c0,2.4-2,4.4-4.4,4.4H24.4C22,53.3,20,51.3,20,48.9z M47.2,42.3c0.4,0.4,0.4,1,0,1.4l-3.4,3.4l-2.1-2.1
	c-0.4-0.4-0.4-1,0-1.4c0.4-0.4,1-0.4,1.4,0l0.7,0.7l2-2C46.2,41.9,46.8,41.9,47.2,42.3z"/>
<path d="M36,72C16.1,72,0,55.9,0,36S16.1,0,36,0s36,16.1,36,36S55.9,72,36,72z M36,2C17.3,2,2,17.3,2,36c0,18.7,15.3,34,34,34
	c18.7,0,34-15.3,34-34C70,17.3,54.7,2,36,2z"/>
</svg>
