<?xml version="1.0" encoding="utf-8"?>
<!-- Generator: Adobe Illustrator 28.1.0, SVG Export Plug-In . SVG Version: 6.00 Build 0)  -->
<svg version="1.1" id="Layer_1" xmlns="http://www.w3.org/2000/svg" xmlns:xlink="http://www.w3.org/1999/xlink" x="0px" y="0px"
	 viewBox="0 0 72 72" enable-background="new 0 0 72 72" xml:space="preserve">
<path id="Subtract" fill-rule="evenodd" clip-rule="evenodd" d="M35.6,28.5c2.3,0,4.2-1.9,4.2-4.2S37.9,20,35.6,20s-4.2,1.9-4.2,4.2
	S33.3,28.5,35.6,28.5z M35.6,30.5c3.4,0,6.2-2.8,6.2-6.2c0-3.4-2.8-6.2-6.2-6.2c-3.4,0-6.2,2.8-6.2,6.2
	C29.4,27.7,32.2,30.5,35.6,30.5z M18,30.2c0.1-0.5,0.7-0.9,1.2-0.7l16.4,4.1L52,29.5c0.5-0.1,1.1,0.2,1.2,0.7
	c0.1,0.5-0.2,1.1-0.7,1.2l-15.9,4v7.2l8.1,10.1c0.3,0.4,0.3,1.1-0.2,1.4c-0.4,0.3-1.1,0.3-1.4-0.2l-7.5-9.4L28.1,54
	c-0.3,0.4-1,0.5-1.4,0.2c-0.4-0.3-0.5-1-0.2-1.4l8.1-10.1v-7.2l-15.9-4C18.2,31.3,17.9,30.8,18,30.2z"/>
<path d="M36,72C16.1,72,0,55.9,0,36S16.1,0,36,0s36,16.1,36,36S55.9,72,36,72z M36,2C17.3,2,2,17.3,2,36c0,18.7,15.3,34,34,34
	c18.7,0,34-15.3,34-34C70,17.3,54.7,2,36,2z"/>
</svg>
