<svg version="1.1" xmlns="http://www.w3.org/2000/svg" xmlns:xlink="http://www.w3.org/1999/xlink" x="0px" y="0px"
	 viewBox="0 0 72 72" enable-background="new 0 0 72 72" xml:space="preserve">
<path fill-rule="evenodd" clip-rule="evenodd" d="M61.9,30L36.2,17.1c-0.3-0.1-0.6-0.1-0.9,0L9.6,30C9.2,30.1,9,30.5,9,30.9
	c0,0.4,0.2,0.7,0.6,0.9l12.3,6.2c0,0,0,0.1,0,0.1v10.8c0,0.4,0.2,0.7,0.5,0.9l12.9,7.1c0.3,0.2,0.7,0.2,1,0l12.9-7.1
	c0.3-0.2,0.5-0.5,0.5-0.9V38.1c0-0.1,0-0.1,0-0.1l4.8-2.4v3.2c-1.2,0.4-2,1.5-2,2.8c0,1.3,0.8,2.4,2,2.8v2.6c0,0.6,0.4,1,1,1
	s1-0.4,1-1v-2.6c1.2-0.4,2-1.5,2-2.8s-0.8-2.4-2-2.8v-4.2l5.5-2.8c0.3-0.2,0.6-0.5,0.6-0.9C62.4,30.5,62.2,30.1,61.9,30z M47.6,48.3
	l-11.9,6.5l-11.9-6.5v-9.4l11.4,5.7c0.3,0.1,0.6,0.1,0.9,0l11.4-5.7V48.3z M55.2,42.5c-0.6,0-1-0.4-1-1s0.4-1,1-1s1,0.4,1,1
	S55.8,42.5,55.2,42.5z M55.1,32.9l-6.8-2.9c-0.5-0.2-1.1,0-1.3,0.5c-0.2,0.5,0,1.1,0.5,1.3l5.3,2.3l-17.1,8.5L12.2,30.9l23.5-11.7
	l23.5,11.7L55.1,32.9z"/>
<path d="M36,72C16.1,72,0,55.9,0,36S16.1,0,36,0s36,16.1,36,36S55.9,72,36,72z M36,2C17.3,2,2,17.3,2,36c0,18.7,15.3,34,34,34
	c18.7,0,34-15.3,34-34C70,17.3,54.7,2,36,2z"/>
</svg>
