<svg width="63" height="64" viewBox="0 0 63 64" fill="none" xmlns="http://www.w3.org/2000/svg">
  <path d="M40.7605 43.6743L37.3887 40.3133L38.9283 38.7737L40.7605 40.6168L43.8937 37.4727L45.4334 39.0123L40.7605 43.6743Z" fill="#11385B"/>
  <path d="M30.5689 47.998H21.8955C18.9031 47.998 16.4746 45.5695 16.4746 42.5771V20.8936C16.4746 17.9012 18.9031 15.4727 21.8955 15.4727H39.2424C42.2348 15.4727 44.6633 17.9012 44.6633 20.8936V29.567H42.4949V20.8936C42.4949 19.1047 41.0313 17.641 39.2424 17.641H21.8955C20.1066 17.641 18.643 19.1047 18.643 20.8936V42.5771C18.643 44.366 20.1066 45.8297 21.8955 45.8297H30.5689V47.998Z" fill="#11385B"/>
  <path d="M45.7473 47.9988H37.0738C35.2849 47.9988 33.8213 46.5352 33.8213 44.7463V36.0729C33.8213 34.284 35.2849 32.8203 37.0738 32.8203H45.7473C47.5362 32.8203 48.9998 34.284 48.9998 36.0729V44.7463C48.9998 46.5352 47.5362 47.9988 45.7473 47.9988ZM37.0738 34.9887C36.4775 34.9887 35.9896 35.4766 35.9896 36.0729V44.7463C35.9896 45.3426 36.4775 45.8305 37.0738 45.8305H45.7473C46.3436 45.8305 46.8314 45.3426 46.8314 44.7463V36.0729C46.8314 35.4766 46.3436 34.9887 45.7473 34.9887H37.0738Z" fill="#11385B"/>
  <path d="M21.8955 21.9727H39.2424V24.141H21.8955V21.9727Z" fill="#11385B"/>
  <path d="M21.8955 38.2419H30.5689V40.4103H21.8955V38.2419Z" fill="#11385B"/>
  <path d="M21.8955 27.3984H39.2424V29.5668H21.8955V27.3984Z" fill="#11385B"/>
  <path d="M21.8955 32.8203H30.5689V34.9887H21.8955V32.8203Z" fill="#11385B"/>
</svg>
