<svg aria-hidden="true" width="63" height="64" xmlns="http://www.w3.org/2000/svg" viewBox="0 0 63 64">
  <path fill="#11385B" d="M24.2 30.5c0-.3.2-.5.5-.5h13.9c.3 0 .5.2.5.5s-.2.5-.5.5H24.8c-.3 0-.6-.2-.6-.5zM24.2 26.7c0-.3.2-.5.5-.5h13.9c.3 0 .5.2.5.5s-.2.5-.5.5H24.7c-.2.1-.5-.2-.5-.5zM24.2 23c0-.3.2-.5.5-.5h13.9c.3 0 .5.2.5.5s-.2.5-.5.5H24.7c-.2 0-.5-.2-.5-.5zM24.2 19.2c0-.3.2-.5.5-.5h7.8c.3 0 .5.2.5.5s-.2.5-.5.5h-7.8c-.2 0-.5-.2-.5-.5z"/>
  <path fill="#11385B" d="m46.3 29.1-3.7-1.8v-5.9c0-.7-.3-1.3-.8-1.8L38.3 16c-.5-.5-1.1-.8-1.8-.8H22.9c-1.2 0-2.1.9-2.1 2.1v10l-3.7 1.8c-.6.3-1 .9-1 1.6v13.8c0 1 .8 1.8 1.8 1.8h27.5c1 0 1.8-.8 1.8-1.8V30.7c0-.7-.3-1.3-.9-1.6zm-3.7-.6 2.8 1.4-2.8 1.1v-2.5zM37.8 17l3 3h-3v-3zm-15.9.3c0-.6.5-1.1 1.1-1.1h13.8V20c0 .6.5 1 1 1h3.7v10.3l-9.9 3.8-9.9-3.8v-14zm-1.1 11.2V31L18 29.9l2.8-1.4zm-3.6 2.2 9.6 3.7-9.6 10V30.7zm.8 14.5s-.1 0 0 0c-.1 0-.1 0 0 0l9.9-10.4 3.6 1.4.2.1 3.7-1.4L45 45.2H18zm28.2-14.5v13.8c0 .1 0 .2-.1.3l-9.6-10.4 9.7-3.7z"/>
</svg>
