<svg aria-hidden="true" width="63" height="64" xmlns="http://www.w3.org/2000/svg" viewBox="0 0 63 63">
  <path fill="#11385B" d="M42.2 29.1c0 .6-.5 1.2-1.2 1.2h-3.6c-.7 0-1.2-.5-1.2-1.2 0-.6.5-1.2 1.2-1.2H41c.7.1 1.2.6 1.2 1.2zm4.8-2.3v9.4c0 1.9-1.6 3.5-3.6 3.5H41v4.7c0 1.9-1.6 3.5-3.6 3.5H25.5c-2 0-3.6-1.6-3.6-3.5v-4.7h-2.4c-2 0-3.6-1.6-3.6-3.5v-9.4c0-1.9 1.6-3.5 3.6-3.5H22v-4.7c0-1.9 1.6-3.5 3.6-3.5h11.9c2 0 3.6 1.6 3.6 3.5v4.7h2.4c1.9-.1 3.5 1.5 3.5 3.5zm-22.7-3.6h14.3v-4.7c0-.6-.5-1.2-1.2-1.2H25.5c-.7 0-1.2.5-1.2 1.2v4.7zM38.7 35H24.3v9.4c0 .6.5 1.2 1.2 1.2h11.9c.7 0 1.2-.5 1.2-1.2V35zm5.9-8.2c0-.6-.5-1.2-1.2-1.2H19.6c-.7 0-1.2.5-1.2 1.2v9.4c0 .6.5 1.2 1.2 1.2H22V35c0-1.3 1.1-2.4 2.4-2.4h14.3c1.3 0 2.4 1.1 2.4 2.4v2.4h2.4c.7 0 1.2-.5 1.2-1.2v-9.4zm-9.5 14.1h-7.2c-.7 0-1.2.5-1.2 1.2 0 .6.5 1.2 1.2 1.2h7.2c.7 0 1.2-.5 1.2-1.2 0-.6-.6-1.2-1.2-1.2zm0-3.5h-7.2c-.7 0-1.2.5-1.2 1.2s.5 1.2 1.2 1.2h7.2c.7 0 1.2-.5 1.2-1.2s-.6-1.2-1.2-1.2z"/>
</svg>
