<svg aria-hidden="true" width="63" height="63" viewBox="0 0 63 63" fill="none" xmlns="http://www.w3.org/2000/svg">
  <path d="M17.266 15H45.7395C46.988 15 48 16.012 48 17.2605V39.178C48 40.4265 46.988 41.4385 45.7395 41.444H37.55V44.7715C37.583 45.9815 38.5895 46.933 39.7995 46.9H40.7345C41.037 46.9 41.2845 47.1475 41.2845 47.45C41.2845 47.7525 41.037 48 40.7345 48H22.2655C21.963 48 21.7155 47.7525 21.7155 47.45C21.7155 47.1475 21.963 46.9 22.2655 46.9H23.2005C24.4105 46.933 25.417 45.976 25.45 44.7715V41.444H17.266C16.0175 41.444 15.0055 40.432 15 39.178V17.2605C15 16.012 16.012 15 17.266 15ZM45.7395 16.1H17.266C16.6225 16.1 16.1055 16.6225 16.1055 17.2605V35.9605H46.9V17.2605C46.9 16.617 46.3775 16.1 45.7395 16.1ZM25.714 46.9H37.2915C36.7525 46.3225 36.4555 45.558 36.4555 44.7715V41.444H26.5555V44.7715C26.5555 45.5635 26.253 46.3225 25.7195 46.9H25.714ZM17.266 40.344H45.7395C46.383 40.344 46.9 39.8215 46.9 39.178V37.0605H16.1V39.178C16.1 39.8215 16.6225 40.3385 17.266 40.344Z" fill="#11385B"/>
  <path d="M22.1502 39.2C21.8464 39.2 21.6002 38.9537 21.6002 38.65C21.6002 38.3462 21.8464 38.1 22.1502 38.1C22.454 38.1 22.7002 38.3462 22.7002 38.65C22.7002 38.9537 22.454 39.2 22.1502 39.2Z" fill="#11385B"/>
  <path d="M19.95 39.2C19.6462 39.2 19.4 38.9537 19.4 38.65C19.4 38.3462 19.6462 38.1 19.95 38.1C20.2538 38.1 20.5 38.3462 20.5 38.65C20.5 38.9537 20.2538 39.2 19.95 39.2Z" fill="#11385B"/>
  <path d="M17.7498 39.2C17.446 39.2 17.1998 38.9537 17.1998 38.65C17.1998 38.3462 17.446 38.1 17.7498 38.1C18.0536 38.1 18.2998 38.3462 18.2998 38.65C18.2998 38.9537 18.0536 39.2 17.7498 39.2Z" fill="#11385B"/>
  <path d="M31.7141 34.1895C31.5766 34.2445 31.4226 34.2445 31.2851 34.1895C27.4956 32.688 24.9766 29.058 24.8996 24.9825V21.6055L31.4996 18.828L38.0996 21.6055V24.9825C38.0226 29.058 35.5036 32.688 31.7141 34.1895ZM36.9996 22.3315L31.4996 20.016L25.9996 22.3315V24.9825C26.0766 28.53 28.2271 31.7035 31.4996 33.084C34.7721 31.7035 36.9226 28.53 36.9996 24.9825V22.3315Z" fill="#11385B"/>
  <path d="M31.7753 28.7006L28.3598 25.2851C28.1508 25.0651 28.1563 24.7186 28.3708 24.5096C28.5853 24.3061 28.9208 24.3061 29.1353 24.5096L31.7698 27.1441L33.3043 25.6096C33.5243 25.4006 33.8708 25.4061 34.0798 25.6206C34.2833 25.8351 34.2833 26.1706 34.0798 26.3851L31.7643 28.7006H31.7753Z" fill="#11385B"/>
</svg>
